<?xml version="1.0" encoding="UTF-8"?>
<svg id="Layer_1" xmlns="http://www.w3.org/2000/svg" version="1.1" viewBox="0 0 230.7 159.8">
  <!-- Generator: Adobe Illustrator 29.4.0, SVG Export Plug-In . SVG Version: 2.1.0 Build 152)  -->
  <defs>
    <style>
      .st0, .st1 {
        fill-rule: evenodd;
      }

      .st0, .st2 {
        fill: #3f3287;
      }

      .st1, .st3 {
        fill: #9f0;
      }
    </style>
  </defs>
  <g id="Layer_x5F_1">
    <path class="st2" d="M24.5,93.9c2.1,0,3.7.2,5.3.7v-12c-2.7-1-6.6-1.3-10.3-1.3-8.4,0-14.1,5.6-14.1,14.1v3.6H0v12h5.4v16.6H1v12h25v-12h-5.8v-16.6h8.4v-12h-8.4v-1.3c0-2.3,1.7-3.8,4.3-3.8h0ZM51,82.1h-15.1v13.3h15.1s0-13.3,0-13.3ZM51,127.6v-28.6h-19.1v12h4.4v16.6h-4.4v12h23.5v-12h-4.4,0ZM89,98.3c-4.1,0-8.9,2.3-12.3,7.2l-1.2-6.5h-16.9v12h4.4v16.6h-4.4v12h25.6v-12h-6.4v-6.8c0-5.1,3.7-8.4,9.5-8.4h4.1v-14.1h-2.4ZM130.1,118.5c0-12.1-6.8-20.2-17.1-20.2s-20.8,8.6-20.8,21.6,8.3,20.5,20.7,20.5,11.5-.8,15.7-2.2v-12c-3,1.3-7.2,1.9-11.5,1.9s-8.5-1.9-9.5-5.5h22.5v-4.2h0ZM112.2,110.6c2.3,0,3.4,1.6,3.5,4.5h-8.1c.7-3,2.2-4.5,4.5-4.5h0ZM138.2,95.1v4h-5.4v12h5.4v16.6h-4.4v12h25v-12h-5.8v-16.6h7.6v-12h-7.6v-1.7c0-2.1,1.4-3.4,3.5-3.4s3.2.2,4.6.7v-12c-2.4-1-6.2-1.3-9.5-1.3-8,0-13.4,5.5-13.4,13.7h0ZM182.4,127.6v-45.6h-18.4v12h3.6v33.5h-4.4v12h23.5v-12h-4.4,0ZM230.7,99h-19.7v12h5v9c0,4.7-1.8,7.7-4.7,7.7s-3.8-1.8-3.8-5.5v-23.3h-19.1v12h4.4v13.4c0,10.5,4.2,16,12.4,16s8.1-1.8,11.2-5.6v1c0,5-4.8,8.3-12,8.3s-8.3-.6-10.8-1.6v12.3c3,1.2,8.3,1.9,13.4,1.9,14.3,0,23.8-8.4,23.8-20.9,0,0,0-36.7,0-36.7Z"/>
    <path class="st2" d="M4.4,151.5h1.7c1.1,0,2-.2,2.5-.6.5-.4.8-1,.8-1.9s-.3-1.4-.8-1.8c-.5-.4-1.4-.6-2.5-.6h-1.6v4.9ZM4.4,153.6v6H2v-15h4.2c1.9,0,3.4.4,4.3,1.1.9.7,1.4,1.8,1.4,3.3s-1,3.2-2.9,4l4.2,6.6h-2.8l-3.6-6h-2.4Z"/>
    <polygon id="_x31_" class="st2" points="25.1 159.5 16.6 159.5 16.6 144.6 25.1 144.6 25.1 146.7 19.1 146.7 19.1 150.7 24.7 150.7 24.7 152.8 19.1 152.8 19.1 157.5 25.1 157.5 25.1 159.5"/>
    <path id="_x32_" class="st2" d="M39.5,149.1c0,1.6-.5,2.8-1.5,3.6-1,.8-2.5,1.2-4.4,1.2h-1.6v5.6h-2.4v-15h4.3c1.9,0,3.3.4,4.2,1.1s1.4,1.9,1.4,3.4ZM32,151.9h1.3c1.2,0,2.2-.2,2.8-.7.6-.4.9-1.1.9-2.1s-.3-1.5-.8-1.9c-.5-.4-1.3-.6-2.5-.6h-1.7v5.3h0Z"/>
    <path id="_x33_" class="st2" d="M46.1,151.5h1.7c1.1,0,2-.2,2.5-.6.5-.4.8-1,.8-1.9s-.3-1.4-.8-1.8c-.5-.4-1.4-.6-2.5-.6h-1.6v4.9ZM46.1,153.6v6h-2.5v-15h4.2c1.9,0,3.4.4,4.3,1.1.9.7,1.4,1.8,1.4,3.3s-1,3.2-2.9,4l4.2,6.6h-2.8l-3.6-6h-2.4Z"/>
    <path id="_x34_" class="st2" d="M71.6,152.1c0,2.4-.6,4.3-1.8,5.7-1.2,1.3-2.9,2-5.2,2s-4-.7-5.2-2c-1.2-1.3-1.8-3.2-1.8-5.7s.6-4.4,1.8-5.7c1.2-1.3,3-2,5.2-2s3.9.7,5.2,2c1.2,1.3,1.8,3.2,1.8,5.7h0ZM60.2,152.1c0,1.8.4,3.2,1.1,4.2.7.9,1.8,1.4,3.3,1.4s2.5-.5,3.3-1.4c.7-.9,1.1-2.3,1.1-4.2s-.4-3.2-1.1-4.2c-.7-.9-1.8-1.4-3.3-1.4s-2.6.5-3.3,1.4c-.7.9-1.1,2.3-1.1,4.2h0Z"/>
    <path id="_x35_" class="st2" d="M88.2,151.9c0,2.5-.7,4.4-2.1,5.7-1.4,1.3-3.4,2-5.9,2h-4.2v-15h4.6c2.4,0,4.2.6,5.6,1.9,1.3,1.3,2,3.1,2,5.4ZM85.7,152c0-3.6-1.7-5.4-5-5.4h-2.1v10.9h1.7c3.6,0,5.4-1.8,5.4-5.5Z"/>
    <path id="_x36_" class="st2" d="M104.4,144.6v9.7c0,1.1-.2,2.1-.7,2.9-.5.8-1.2,1.5-2.1,1.9s-2,.7-3.2.7c-1.9,0-3.3-.5-4.3-1.5-1-1-1.5-2.3-1.5-4.1v-9.6h2.5v9.5c0,1.2.3,2.2.9,2.7.6.6,1.4.9,2.6.9,2.3,0,3.5-1.2,3.5-3.6v-9.4s2.4,0,2.4,0Z"/>
    <path id="_x37_" class="st2" d="M115.9,146.5c-1.4,0-2.5.5-3.3,1.5-.8,1-1.2,2.4-1.2,4.1s.4,3.2,1.2,4.2c.8.9,1.9,1.4,3.4,1.4s1.2,0,1.8-.2c.6-.1,1.2-.3,1.9-.5v2.1c-1.2.4-2.5.7-4,.7-2.2,0-3.9-.7-5-2-1.2-1.3-1.8-3.2-1.8-5.7s.3-2.9.9-4.1c.6-1.2,1.4-2.1,2.5-2.7,1.1-.6,2.3-.9,3.8-.9s2.9.3,4.2,1l-.9,2c-.5-.2-1-.4-1.6-.6-.6-.2-1.2-.3-1.8-.3Z"/>
    <polygon id="_x38_" class="st2" points="129.2 159.5 126.8 159.5 126.8 146.7 122.4 146.7 122.4 144.6 133.6 144.6 133.6 146.7 129.2 146.7 129.2 159.5"/>
    <polygon id="_x39_" class="st2" points="137.2 159.5 137.2 144.6 139.6 144.6 139.6 159.5 137.2 159.5"/>
    <path id="_x31_0" class="st2" d="M158.1,152.1c0,2.4-.6,4.3-1.8,5.7-1.2,1.3-2.9,2-5.2,2s-4-.7-5.2-2c-1.2-1.3-1.8-3.2-1.8-5.7s.6-4.4,1.8-5.7c1.2-1.3,3-2,5.2-2s3.9.7,5.2,2c1.2,1.3,1.8,3.2,1.8,5.7h0ZM146.7,152.1c0,1.8.4,3.2,1.1,4.2.7.9,1.8,1.4,3.3,1.4s2.6-.5,3.3-1.4c.7-.9,1.1-2.3,1.1-4.2s-.4-3.2-1.1-4.2c-.7-.9-1.8-1.4-3.3-1.4s-2.6.5-3.3,1.4c-.7.9-1.1,2.3-1.1,4.2h0Z"/>
    <path id="_x31_1" class="st2" d="M175,159.5h-3l-7.4-11.9h0v.7c.1,1.3.2,2.4.2,3.5v7.8h-2.2v-15h3l7.3,11.9h0c0-.2,0-.7,0-1.7,0-1,0-1.8,0-2.3v-7.8h2.2v15h0Z"/>
    <path id="_x31_2" class="st2" d="M188.8,155.5c0,1.3-.5,2.4-1.4,3.1-1,.8-2.3,1.1-4,1.1s-3.1-.3-4.1-.8v-2.3c.7.3,1.4.6,2.2.8.8.2,1.5.3,2.1.3,1,0,1.7-.2,2.1-.6.5-.4.7-.9.7-1.5s-.2-1-.6-1.4c-.4-.4-1.3-.8-2.6-1.4-1.4-.6-2.3-1.2-2.9-1.9-.6-.7-.8-1.6-.8-2.6s.4-2.2,1.3-2.9c.9-.7,2.1-1.1,3.6-1.1s2.9.3,4.3.9l-.8,2c-1.3-.6-2.5-.8-3.6-.8s-1.4.2-1.8.5-.6.8-.6,1.4,0,.7.3,1c.2.3.4.5.8.8.4.2,1,.6,2,1,1.1.5,1.9.9,2.4,1.3.5.4.9.8,1.1,1.3.2.5.4,1.1.4,1.8Z"/>
  </g>
  <g>
    <g id="_2087879917120">
      <path class="st1" d="M126,70.6c.5,1.7.3,3.3-.4,4.9-1.7,3.4-5.9,5.5-10.6,5.8-2.8.2-5.8-.3-8.4-1.3-2.5-1-4.7-2.5-6.2-4.3-.8-1-1.4-2.1-1.7-3.3-.5-1.7-.3-3.3.4-4.9,1.4-2.8,4.4-4.7,8.1-5.4.4,1.9.9,3.7,1.6,5.3-.6,1.1-.8,2.4-.5,3.7.9,3.4,5.2,6,9.6,5.6,3.5-.2,6-2.3,6.3-4.9.5-.7,1-1.4,1.5-2.2.1.3.2.6.3,1Z"/>
      <path class="st1" d="M131.2,74.5c2.2,9.1-5.5,17.1-17.1,18-11.7.9-23-5.8-25.2-14.8-2.2-9,5.5-17.1,17.2-18,.2,0,.5,0,.8,0,.2.9.4,1.8.6,2.7-7.1,1.5-11.4,6.9-9.8,12.9,1.8,6.7,10.3,11.6,18.9,11,8.6-.6,14.1-6.5,12.3-13.2-.4-1.6-1.3-3.2-2.4-4.6.2-.4.5-.9.7-1.3,2,2.1,3.5,4.6,4.2,7.3Z"/>
    </g>
    <g id="_2087879921104">
      <path class="st0" d="M122.8,23.3c0,.7-.2,1.4-.5,1.9-.1.3-.3.5-.5.8-.3.4-.3.4-.6.7-.8.8-2.2,1.5-3.7,1.4-1.6,0-2.9-.9-3.7-1.8-.8-1-1.2-2.1-1.1-3.4.1-2.6,2.3-4.9,5.2-4.8,2.6.1,4.9,2.3,4.8,5.2ZM114.4,14.2c-2.4-6.8-6.7-10.2-7.6-9.4-4.6,6.8-8,3.1-6.8,1.2,3.5-5.5,10.9-3.7,15.2,8.1l3.9-.2c-1.2-11.5,4.4-16.1,9.8-12.9,2,1.1.7,6.1-6.5,2.2-1.2-.2-3,4.3-2.6,10.7h.2c1.7-.1,1.3.2,2.2,2.3.3.7,1,.5,1.7.5,1.4,0,2.6-.4,3.4,1,.3.6.5,4.1.6,6.6,0,2.1.9,4.4-1.4,5.2-3.7,1.2-13.6,1.1-15.8,1.2-3.5.2-3.1-2.6-3.2-5.4,0-1.8-.1-3.8-.2-5.3,0-1,.2-1.8,1.1-2.2.7-.3,2.5-.2,3.3-.4.6-.1.7-.8.9-1.4,0-.3.2-.6.2-.9.2-.9.6-.9,1.4-.9h0s0,0,0,0ZM117.4,20.1c-1.6.2-2.8,1.7-2.6,3.5.2,1.6,1.7,2.8,3.5,2.6,1.6-.2,2.8-1.7,2.6-3.5-.2-1.6-1.7-2.8-3.5-2.6ZM125.6,19.5c0,.3-.3.6-.8.5-.9-.2-.6-1.5.2-1.3.3,0,.6.4.5.8Z"/>
      <path class="st0" d="M113.2,46c-1.2.4-2.2,1-3.1,1.9-5.6,5.9-.3,22.8,6.4,25.1,6.6,2.3,11.9-12.6,13-17.4.7-3,.9-6.1.6-9.3,13.9,3.6,31.5,7.1,25-1.1-4.4-5.6-8.6-8.9-12.5-10.6,12.1-4.3,24-9.9,14.6-12.8-24.3-7.6-28.7,5.6-30.7,13.5-1.2-1.6-2.8-2.9-4.7-3.4-.9-.2-1.7-.2-2.6-.1-2,.3-4,1.5-5.4,2.9-.6.6-1.2,1.3-1.7,2-4.8-9-14-21-38-10-9.3,4.3,2.9,8.9,16.7,12.5-1.7,1.8-3.5,4-5.4,6.9-7.1,10.8,17.1,2.2,26.7-1.4.4.4.8.8,1.2,1.2ZM129.8,45c-.2-1.5-.5-3-1-4.4-.1-.4-.3-.9-.5-1.3,3.1-1,7.6-2.3,12.1-3.9,3.4,1.3,7.2,4.1,11.3,8.9,5.7,6.9-10,3.8-21.9.7ZM127.8,37.9c-.1-.2-.2-.5-.4-.7.1-.3.2-.6.3-.9,2.9-1.4,6.2-2.4,10.1-1.6-4.2,1.4-8,2.6-10.1,3.2ZM111,38.8c0,.2-.1.4-.2.6-4.1-4.2-10.4-9.1-19-1.2-11-2.9-20.3-6.7-12.9-9.9,21.8-9.4,28.4,3.2,32.1,10.4ZM110.6,40.8c0,.1,0,.3,0,.4,0,.5,0,.9.2,1.3-4.2-.8-11.3-2.2-18-4,8.7-7.9,14.5-1.3,17.9,2.3ZM128.2,34.9c3.4-1.5,7.4-2.2,11.8-1,9.5-3.4,19.3-7.9,11.9-10-19.4-5.6-22.2,5.1-23.8,11ZM91.6,39.6c6.9,1.7,14,3.2,19,4.1-8.2,3-29.8,10.5-23.5,1.4,1.6-2.3,3-4.1,4.4-5.5ZM112.8,47.6c-1.8,7.4,11.2,10.8,13.6,7.1,2.6-3.9,2.3-9.1.9-13.5-.9-2.9-2.9-6.7-6.1-7.5-.6-.2-1.3-.2-2,0-1.7.3-3.3,1.3-4.5,2.4-1.3,1.3-2.5,3.2-2.5,5.1,0,1.5.8,2.7,1.9,3.6l2.4,2s-3.8.9-3.8.9Z"/>
    </g>
    <path class="st3" d="M111.2,51.4c-4.7,4.7.4,17.8,6.2,18.9,6.2,1.1,9.8-11.4,10.2-14.4-3.2,5-16.3.7-16.4-4.4Z"/>
  </g>
</svg>