<?xml version="1.0" encoding="UTF-8"?>
<svg id="Layer_1" xmlns="http://www.w3.org/2000/svg" version="1.1" viewBox="0 0 856 673.3">
  <!-- Generator: Adobe Illustrator 29.4.0, SVG Export Plug-In . SVG Version: 2.1.0 Build 152)  -->
  <path d="M340.6,295.1c3.3,1.8,6.9,2.6,10.2,2.6,6.3,0,12.2-3,15-8.3,2.2-4.1,2.4-8.9.5-13.5-1.8-4.5-5.3-8.3-9.8-10.7-4.5-2.4-9.6-3.2-14.3-2.2-4.9,1-8.8,3.9-11,7.9-4.4,8.3-.3,19.1,9.3,24.2Z"/>
  <path d="M854.5,143.1c-4.3-13.7-12.1-26-23.1-36.6h0c0-.1-.3-.3-.6-.5-14.4-13.8-34.1-24.8-58.7-32.5-31.7-10-60.1-11.3-62.7-11.4-88.8-8.3-221.6,23.5-239.7,28-8.2-4.8-17.9-6.9-24-7.8,0-2-.6-3.6-1.2-4.8-1.2-2.3-3.2-3.9-5-4.9,7.5-21.3,47.3-57.1,55.3-63.6,1.8-1.4,2.4-3.9,1.4-6-1-2.1-3.3-3.2-5.6-2.7-31,7.4-52,19.1-62.7,34.9-10.7-15.8-31.7-27.5-62.7-34.9-2.2-.5-4.6.5-5.6,2.6-1,2.1-.4,4.6,1.4,6,8.1,6.6,47.9,42.3,55.4,63.7-1.9,1-3.8,2.6-5,4.9-.6,1.2-1.2,2.8-1.2,4.8-6,.9-15.8,3-24,7.8-18.1-4.5-151-36.3-239.7-28-2.6,0-31.1,1.4-62.7,11.4-24.6,7.8-44.3,18.8-58.7,32.5-.3.2-.5.4-.6.5h0c-11,10.7-18.8,23-23.1,36.7-.5,1.5-.2,3,.7,4.3,0,.1,2.2,3.4,1.4,7.8-.3,1.4,0,2.7.9,3.9.9,1.2,21,27.8,55.1,28.1,7.4,4.8,48.4,32.4,78.6,75.7.4.6,1,1.1,1.6,1.5,5.1,2.9,13.2,7.9,17.7,11.3-4.8,8-14.1,26.5-5.6,39.6,1,1.6,2.4,2.5,4.3,2.3.4,0,1.9.3,3.7,2,.3,3.8,2.1,9.3,7.3,13.5.8.6,1.7,1,2.7,1.1.2,0,17,1.8,28.4,8.2l89.4,54.2c.2.1.5.2.7.3.1,0,13.2,5.5,24,20.3,14.6,20.2,17.7,46.9,9.2,79.6-1.2,3.4-18,52.2-22.2,61.4-4.7,9.9-8.9,38.6-9.6,43.7-3.5,10.2-10.8,27.5-16.2,31.6-.8.6-1.4,1.4-1.7,2.3l-7.9,23c-.4,1.1-.4,2.3,0,3.3.2.6,1.6,3.8,5.3,5.4,2,.9,4.3,1.2,6.7.8,2.1,2.4,5.6,5.1,9.9,4.9,4.3-.2,7.8-3.2,10.3-8.8,0-.2.1-.4.2-.5.3-1,7.9-24.8,11.8-51.6,8.7-5.1,37.9-26.3,58.3-86.7.1-.4.2-.7.2-1.1,0-.3,3.2-32.9,19.7-92.5l22.2-84.3c.6-1.8,5.4-18.4,5.7-55.4,1.7,1,3.6,2,5.9,3,6,2.8,7.2,2.8,8.1,2.8s2.1,0,8.1-2.8c2.3-1,4.2-2,5.9-3,.3,37,5.1,53.6,5.7,55.4l22.3,84.4c16.4,59.6,19.6,92.1,19.6,92.5,0,.4.1.7.2,1.1,20.4,60.4,49.6,81.6,58.3,86.7,3.9,26.8,11.4,50.6,11.8,51.6,0,.2.1.4.2.5,2.6,5.6,6,8.6,10.3,8.8.2,0,.4,0,.6,0,4.1,0,7.3-2.6,9.3-4.9,2.4.4,4.7.1,6.7-.8,3.7-1.7,5.1-4.8,5.3-5.4.4-1.1.4-2.3,0-3.3l-7.9-23c-.3-.9-.9-1.7-1.7-2.3-5.4-4.1-12.7-21.4-16.2-31.6-.7-5.1-5-33.8-9.6-43.7-4.2-9.2-21.1-58.1-22.2-61.5-8.4-32.4-5.4-59.1,8.9-79.2,10.7-15,24.2-20.7,24.3-20.7.2,0,.5-.2.7-.3l89.4-54.2c11.4-6.4,28.3-8.2,28.4-8.2,1,0,1.9-.5,2.7-1.1,5.2-4.2,6.9-9.8,7.3-13.5,1.8-1.7,3.3-1.9,3.7-2,1.8.2,3.2-.7,4.3-2.3,8.5-13.1-.7-31.6-5.6-39.6,4.5-3.4,12.6-8.4,17.7-11.3.6-.4,1.2-.9,1.6-1.5,30.2-43.3,71.2-71,78.6-75.7,34-.3,54.2-27,55.1-28.1.8-1.1,1.1-2.5.9-3.9-.8-4.4,1.3-7.7,1.3-7.7.9-1.3,1.2-2.9.7-4.4ZM626,266.1c-25-32.3-91.7-115.8-131.3-139.1,8.5-1,16.8-2.2,24.8-3.4,35.6,13,92.5,68.4,130.7,108.8-8.6,10.5-16.8,21.7-24.3,33.8ZM626.5,274.9s0,0,0,0c0,0,0,0,0,0,0,0,0,0,0,0ZM205.6,232.3c38.3-40.4,95.2-95.7,130.7-108.8,8.1,1.3,16.3,2.4,24.8,3.4-39.6,23.2-106.3,106.8-131.3,139.1-7.5-12-15.7-23.3-24.3-33.8ZM229.5,274.8s0,0,0,0c0,0,0,0,0,0,0,0,0,0,0,0ZM226.6,117.3c-.4-.4-.9-.7-1.5-.8,0,0-.1,0-.2,0,.2-.8,1.6-4.2,12.6-11.9,12.2,2.3,24.3,4.8,36.6,7.3,8,1.6,15.9,3.3,24.1,4.9-24.8,10.5-55.4,27.1-59.6,29.4-3.7.1-7.3.5-11,1.1,2.1-1.9,6.2-6.5,6.7-12.9.5-5.8-2.1-11.5-7.6-17.1ZM141.2,93.6c4.9.1,9.9.3,15.1.6,11.2.6,21.9,1.5,32.2,2.7-49.9,9.7-89,35.8-96.5,41.1-9.9-5.7-19.2-10.5-27.4-14.6,10.7-6.3,42.6-23.7,76.6-29.8ZM206.2,99.2s0,0,0,0c-36.3,11.1-66.8,31.8-84.2,43.7-4.4,3-7.9,5.4-10.5,6.9-1.6-1-3.2-2-4.7-3-3.4-2.1-6.8-4.2-10.1-6.2,11.8-8,56.1-35.8,109.5-41.5ZM124.8,147c18.7-12.8,52.5-35.8,92.1-45.6-3.2,4.5-6.6,11-6.9,19-.4,9.6,3.8,18.9,12.5,27.6s.1,0,.2.1c-25.6,5.4-49.3,20.3-66.7,34.2-13.8-11.5-27.3-21.3-39.8-29.6,2.4-1.5,5.3-3.5,8.7-5.8ZM230.6,151.7c-7,6.4-20.3,20.6-46.5,52.2-.7.8-1.3,1.6-2,2.4-7.4-7.4-14.9-14.3-22.3-20.7,19.8-15.7,44.7-30.5,70.8-33.9ZM239.8,150.9h.3c0,0,.3-.2.3-.2.4-.2,39.6-21.8,66.6-32.3,6.7,1.3,13.5,2.5,20.4,3.7-36.4,17.5-88.8,68.5-124.9,106.4-5.5-6.5-11.2-12.7-16.9-18.6,25.1-30.3,49-57.5,54.2-58.9ZM226.7,270.2c-1.5,2-2.8,3.7-3.8,5-.2,0-.4,0-.7,0s-.3,0-.5,0c-.2,0-21,2.1-51.6-4.2,6-6.8,17.5-19.7,32.1-35.2,8.7,10.6,16.9,22.1,24.5,34.3ZM369.9,127.9c3,.3,6,.6,9.1.9-15.5,27.5-78.8,132.7-144.3,145.2-.7-1.2-1.4-2.3-2-3.4,25.3-32.6,100.5-127.2,137.2-142.6ZM281.6,263.2c-6,12.4-14.5,30.4-22.1,48.6-11-12.8-16.9-23-19.7-28.7,13.5-3.1,27.5-9.8,41.8-19.9ZM292.2,255.1c15.5-12.6,31.3-29.2,47.5-49.7,1.4-1.7,2.7-3.5,4-5.2-11.1,32.4-29.5,90.7-40.7,150.8-16.9-12.2-29.6-23.9-39.1-34.3,10.3-25.3,22.9-51,28.3-61.6ZM355.7,183.9c15.1-21.4,26.4-40.6,31.9-50.3,2.2,4.3,5.2,12.2,8,26.1-3.9,27.8-21.4,147.9-41,237.2-.4-.6-.7-1.2-1.1-1.8-11.7-18.9-24.7-27.1-25.2-27.4-7.2-4.3-13.8-8.6-19.9-12.8,13.6-74.8,38.9-147.6,47.4-170.8ZM621.7,134.3c.5,6.4,4.6,10.9,6.7,12.9-3.6-.6-7.3-1-11-1.1-4.2-2.3-34.8-18.9-59.6-29.4,8.1-1.6,16.1-3.3,24.1-4.9,12.3-2.5,24.4-5,36.6-7.3,10.9,7.7,12.4,11.2,12.6,11.9,0,0-.1,0-.1,0-.6.1-1.1.4-1.6.8-5.5,5.5-8.1,11.3-7.6,17.1ZM468.3,133.6c5.5,9.7,16.8,28.9,31.9,50.3,8.4,23.2,33.7,96.1,47.4,170.8-6.1,4.3-12.8,8.6-20,12.9-.5.3-13.5,8.5-25.2,27.4-.4.6-.7,1.2-1.1,1.8-19.6-89.3-37.1-209.4-41-237.2,2.8-13.9,5.8-21.8,8-26.1ZM512.2,200.2c1.3,1.7,2.7,3.5,4,5.2,16.2,20.5,32.1,37,47.5,49.7,5.3,10.6,18,36.3,28.3,61.6-9.5,10.4-22.3,22.1-39.1,34.3-11.2-60-29.6-118.4-40.7-150.8ZM574.4,263.2c14.3,10.1,28.3,16.8,41.8,19.9-2.8,5.7-8.7,15.9-19.7,28.7-7.5-18.2-16-36.2-22-48.6ZM477,128.8c3.1-.3,6.1-.6,9.1-.9,36.7,15.5,112,110,137.2,142.6-.7,1.1-1.4,2.3-2,3.4-65.5-12.5-128.7-117.7-144.3-145.2ZM653.7,235.9c14.5,15.5,26,28.3,32.1,35.2-30.6,6.3-51.4,4.2-51.6,4.2-.2,0-.4,0-.5,0s-.4,0-.7,0c-1-1.3-2.3-3-3.8-5,7.5-12.3,15.8-23.7,24.5-34.3ZM653.5,228.5c-36-37.9-88.4-88.9-124.9-106.4,6.9-1.2,13.7-2.4,20.4-3.7,27,10.5,66.2,32.1,66.6,32.3h.3c0,.1.3.2.3.2,5.3,1.4,29.1,28.6,54.2,58.9-5.7,5.9-11.4,12.1-16.9,18.6ZM625.4,151.7c26.1,3.5,51,18.3,70.8,33.9-7.5,6.4-15,13.3-22.3,20.7-.7-.8-1.3-1.6-2-2.4-26.2-31.7-39.5-45.8-46.5-52.2ZM633.3,148.1c0,0,.1,0,.2-.1,8.7-8.7,12.9-18,12.5-27.6-.3-8-3.7-14.5-6.9-19,39.6,9.8,73.4,32.9,92.1,45.6,3.4,2.3,6.3,4.3,8.7,5.8-12.4,8.2-26,18-39.8,29.6-17.5-13.9-41.1-28.9-66.7-34.2ZM734,142.9c-17.5-11.9-48-32.7-84.2-43.7,0,0,0,0,0,0,53.4,5.7,97.7,33.5,109.5,41.5-3.3,2-6.7,4-10.1,6.2-1.5,1-3.1,2-4.7,3-2.5-1.5-6.1-3.9-10.5-6.9ZM667.5,96.9c10.3-1.2,21-2.1,32.2-2.7,5.2-.3,10.3-.5,15.1-.6,34,6,65.9,23.5,76.6,29.8-8.2,4-17.5,8.9-27.4,14.6-7.5-5.3-46.6-31.4-96.5-41.1ZM736.3,93.7c48.5,1.5,73.6,11.7,83.6,17-5.4,2.1-13.4,5.5-23.2,10.1-5.6-3.5-30.3-18.2-60.4-27.1ZM383.7,15.9c20.8,7.8,34.3,18.4,39.7,31.3.8,1.8,2.6,3,4.5,3s3.8-1.2,4.5-3c5.4-12.9,19-23.5,39.7-31.3-15.5,14.7-37,37.5-42.4,54.6h-3.7c-5.4-17.2-26.9-39.9-42.4-54.6ZM416.2,91.4h23.5c1,0,8.7.6,16.7,3.3-14.8,4.9-24,4.6-26.9,4.3-1.1,0-2.2,0-3.2,0-2.8.3-12,.6-26.9-4.3,8-2.7,15.8-3.3,16.7-3.3ZM119.6,93.7c-30.1,9-54.8,23.7-60.4,27.1-9.8-4.7-17.8-8-23.2-10.1,9.9-5.3,35-15.5,83.6-17ZM13.4,154.6c.3-4.6-.9-8.3-2-10.6,3.9-11.3,10.3-21.3,19.3-30.2,4.7,1.8,13.3,5.3,24.7,10.6-14.8,17.4-23.9,34.4-27.8,42.6-7.2-4.8-12.1-10-14.2-12.4ZM31.9,169.6c3.8-7.9,13.1-25.5,28.2-43,8.1,3.9,17.3,8.7,27.3,14.3-10.8,8.1-22.2,27.9-26.7,36.3-11.3.2-21-3.3-28.7-7.6ZM65.2,179.2c4.8-8.9,16.8-29.6,26.9-35.5,4,2.3,8.1,4.8,12.3,7.4.9.6,1.8,1.2,2.8,1.8-9.4,8.4-18.2,29.9-22.2,40.6-9.3-7.3-16.5-12.2-19.7-14.2ZM89,196.6c4.5-12.4,14.1-34.9,22.5-41,12.6,8.2,26.5,18.2,40.5,29.9-.4.3-.8.7-1.3,1-16.6,13.9-29.1,27.9-34.8,34.6-9.6-9.7-18.9-18-26.9-24.5ZM119.3,224.7c5.6-6.6,18.8-21.3,36.5-35.9,7.7,6.6,15.5,13.7,23.1,21.4-15.1,18.4-28.9,35.8-35.3,43.7-7.8-10.8-16.1-20.5-24.3-29.2ZM147.2,257.4c10.5-13.3,22.9-28.8,35.2-43.7,5.7,5.8,11.2,12,16.6,18.4-16,16.9-28.3,30.8-33.9,37.2-4.8-4-13.2-9.2-17.9-11.9ZM172.1,324.5c-2.9-3-2.8-6.5-2.8-6.6.1-1.3-.3-2.6-1.1-3.6-3.3-3.9-6.7-5.6-9.3-6.2-3.3-8.1,2.7-21,6.9-27.8,20.2,4.3,36.4,5.2,46.3,5.2s2.6,0,3.7,0l-24.5,43.4c-8.1-2.7-15.9-3.9-19.2-4.3ZM203,333.9s0,0-.1,0c-1.9-1.1-3.9-2-5.9-2.9l25.9-45.8c3.6,0,7.2-.3,10.8-.9,2.8,6.1,9.5,18.4,23.2,33.8-5.9,14.8-10.9,29.2-13.2,40.5l-40.8-24.7ZM296.9,390.3c-2.3-1.3-4-2.1-4.7-2.4l-43-26c1.8-10.5,6.5-24.4,12.2-39,10,10.5,23.2,22.3,40.4,34.5-2,11-3.6,22-5,32.9ZM356.7,523c-22.2,65.2-55.1,81.6-55.4,81.7-1.5.7-2.6,2.1-2.8,3.8-3.4,25.4-10.8,49.2-11.6,52.1-.9,1.9-1.6,2.6-1.9,2.8-.8-.3-2.3-1.8-3.1-3.2-.9-1.5-2.5-2.4-4.2-2.4s-1.2.1-1.8.3c-.7.3-1.3.4-1.8.5l6.3-18.3c9.2-8.5,17.5-32.9,18.5-35.7,0-.3.2-.6.2-.9.2-1.2.4-2.8.7-4.5,32.7-58,50.8-85.6,60.3-98.6-2.3,12.7-3.1,20.2-3.4,22.4ZM366,471.8c-1.3,5.9-2.5,11.3-3.5,16.2-6.5,7.4-22.7,29.3-59.7,93.9,1.6-8.1,3.4-15.9,5.2-19.6,4.6-10,21.9-60.4,22.7-62.5,0-.1,0-.2.1-.4,11.6-44.5.6-72.5-10.7-88.1-5.9-8.1-12.3-13.8-17.6-17.5,1.3-10.8,2.9-21.8,4.8-32.7,5.6,3.8,11.6,7.6,18,11.5.1,0,12.5,7.9,23.5,25.8,8.9,14.5,18.5,38.5,17.3,73.4ZM398.9,344.8c0,0,0,.2,0,.3l-22.3,84.4c-2,7.2-3.8,14-5.4,20.4-1.8-18.8-6.8-33.7-12.3-45,17.3-76.8,33.1-179.6,39.9-225.9,3,22.5,5.3,54.8,5.3,101.2v.2c.7,45.2-5.1,64.3-5.2,64.4ZM442,279.5c-.4.7-2.4,3.3-10,6.7,0,0,0,0-.1,0-1.4.7-2.9,1.3-3.9,1.7-1-.4-2.5-1-3.9-1.7,0,0,0,0-.1,0-7.6-3.4-9.6-6-10-6.7,0-95.7-9.8-134.1-17.2-149.4,10,.6,20.4.9,31.1.9s21.1-.3,31.1-.9c-7.4,15.4-17.1,53.8-17.2,149.4ZM484.7,449.8c-1.6-6.4-3.4-13.1-5.4-20.3l-22.3-84.5c0,0,0-.2,0-.2,0-.2-5.9-19.3-5.2-64.5v-.2c0-46.4,2.3-78.7,5.3-101.2,6.8,46.3,22.6,149,39.9,225.9-5.5,11.3-10.5,26.2-12.3,45ZM556.8,603.8c0,.3.1.6.2.9,1,2.9,9.3,27.2,18.5,35.7l6.3,18.3c-.5,0-1.1-.2-1.8-.5-2.2-.9-4.7,0-6,2-.8,1.4-2.3,2.9-3.1,3.2-.3-.2-1-.9-1.9-2.8-.9-2.8-8.2-26.7-11.6-52.1-.2-1.6-1.3-3.1-2.8-3.8-.3-.2-33.2-16.5-55.4-81.7-.2-2.1-1.1-9.7-3.4-22.4,9.5,13,27.6,40.6,60.3,98.6.3,1.8.5,3.3.7,4.5ZM535.9,411.4c-11.3,15.6-22.3,43.6-10.7,88.1,0,.1,0,.2.1.4.7,2.1,18.1,52.6,22.7,62.6,1.7,3.7,3.6,11.5,5.2,19.5-36.9-64.6-53.2-86.5-59.7-93.9-1-4.9-2.1-10.3-3.5-16.2-1.3-34.9,8.3-58.9,17.3-73.4,11-17.9,23.4-25.7,23.4-25.7,6.4-3.9,12.4-7.7,18-11.5,1.9,11,3.5,21.9,4.8,32.7-5.3,3.8-11.8,9.4-17.6,17.5ZM563.8,387.9c-.7.3-2.4,1.1-4.7,2.4-1.3-10.9-3-21.9-5-32.9,17.3-12.2,30.4-24,40.4-34.5,5.7,14.5,10.4,28.5,12.2,39l-43,26ZM653.1,333.8s0,0-.1,0l-40.8,24.7c-2.3-11.3-7.3-25.8-13.2-40.5,13.8-15.5,20.4-27.7,23.2-33.8,3.7.6,7.3.9,10.8.9l25.9,45.8c-2,.9-4,1.8-5.9,2.9ZM696.9,308.1c-2.5.7-6,2.3-9.2,6.2-.8,1-1.2,2.2-1.1,3.5,0,.2.2,3.6-2.8,6.7-3.3.4-11.1,1.6-19.2,4.3l-24.5-43.4c1.1,0,2.3,0,3.7,0,9.9,0,26-.9,46.3-5.2,4.2,6.9,10.2,19.7,6.9,27.8ZM690.8,269.3c-5.6-6.4-18-20.3-33.9-37.2,5.4-6.4,11-12.6,16.6-18.4,12.3,14.9,24.7,30.4,35.2,43.7-4.7,2.7-13.1,7.9-17.9,11.9ZM712.2,253.9c-6.3-8-20.2-25.4-35.3-43.7,7.6-7.7,15.4-14.8,23.1-21.4,17.7,14.6,30.9,29.3,36.5,35.9-8.2,8.7-16.6,18.4-24.3,29.2ZM740,221.2c-5.7-6.7-18.2-20.7-34.8-34.6-.4-.3-.8-.7-1.3-1,14.1-11.7,27.9-21.7,40.5-29.9,8.4,6.1,18,28.6,22.5,41-8.1,6.6-17.4,14.8-26.9,24.5ZM771,193.4c-4-10.7-12.8-32.2-22.2-40.6.9-.6,1.9-1.2,2.8-1.8,4.2-2.6,8.3-5.1,12.3-7.4,10,5.9,22,26.6,26.9,35.5-3.2,2.1-10.4,6.9-19.7,14.2ZM796,177.3c-.2,0-.5,0-.7,0-4.5-8.4-15.9-28.2-26.7-36.3,9.9-5.6,19.2-10.4,27.3-14.3,15.1,17.5,24.4,35.1,28.2,43-7.5,4.2-17,7.6-28,7.6ZM842.5,154.6c-2.1,2.5-7,7.6-14.2,12.4-3.9-8.2-13-25.2-27.8-42.6,11.3-5.3,20-8.8,24.7-10.6,8.9,8.8,15.4,18.9,19.3,30.2-1.1,2.3-2.3,6-2,10.6Z"/>
  <path d="M515.4,295.1c4.5-2.4,8-6.2,9.8-10.7,1.9-4.6,1.7-9.4-.5-13.5-4.4-8.3-15.8-10.8-25.3-5.7-4.5,2.4-8,6.2-9.8,10.7-1.9,4.6-1.7,9.4.5,13.5,2.2,4.1,6.1,6.9,11,7.9,1.3.3,2.7.4,4.1.4,3.5,0,7-.9,10.3-2.6Z"/>
</svg>