<?xml version="1.0" encoding="UTF-8"?>
<svg id="Layer_1" xmlns="http://www.w3.org/2000/svg" version="1.1" xmlns:xlink="http://www.w3.org/1999/xlink" viewBox="0 0 856 673.3">
  <!-- Generator: Adobe Illustrator 29.4.0, SVG Export Plug-In . SVG Version: 2.1.0 Build 152)  -->
  <image width="3024" height="4032" transform="translate(-2633.8 -623.1) scale(.6)" xlink:href="moth-1.png"/>
  <path d="M853.8,153.4s-20,27-53.3,26.5c0,0-47.7,29.3-82.4,79,0,0-17.7,10.1-22,14.9,0,0,17.1,24.3,8,38.4,0,0-4.5-.1-8.8,5,0,0,.6,6.8-5.6,11.9,0,0-18.2,1.8-30.9,9l-90.8,55s-58.5,23.7-36.6,107.5c0,0,18.2,53.1,22.8,63,4.6,10,9.4,43.4,9.4,43.4,0,0,9.4,28.2,18.3,34.9l8.1,23.3s-2,5.2-9.5,2.4c0,0-7.9,13-14-.4,0,0-8.4-25.9-12.1-54,0,0-35.5-16.5-59-86.4,0,0-3.1-33-20.1-94.7l-22.6-85.7s-6.3-19.5-5.5-67.1c0,.4-.4,5-13.1,10.7,0,0-5.1,2.4-6.1,2.4s-6.1-2.4-6.1-2.4c-12.7-5.6-13.1-10.3-13.1-10.7.8,47.6-5.5,67.1-5.5,67.1l-22.6,85.7c-17,61.7-20.1,94.7-20.1,94.7-23.6,69.9-59,86.4-59,86.4-3.8,28.1-12.1,54-12.1,54-6.1,13.4-14,.4-14,.4-7.5,2.9-9.5-2.4-9.5-2.4l8-23.3c8.9-6.7,18.3-34.9,18.3-34.9,0,0,4.7-33.4,9.4-43.4,4.6-10,22.8-63,22.8-63,21.9-83.8-36.6-107.5-36.6-107.5l-90.8-55c-12.7-7.2-30.9-9-30.9-9-6.2-5.1-5.6-11.9-5.6-11.9-4.3-5.2-8.8-5-8.8-5-9.1-14.1,8-38.4,8-38.4-4.3-4.8-22-14.9-22-14.9-34.7-49.7-82.4-79-82.4-79-33.3.5-53.3-26.5-53.3-26.5,1.3-6.8-2.2-11.7-2.2-11.7C23.6,66.9,142.6,62.9,142.6,62.9c96.6-9.1,243.8,28.8,243.8,28.8,12-8,29.5-8.9,29.5-8.9-4.3-9.4,6.3-11.2,6.3-11.2C418.1,46.6,364.1.7,363.2,0c41.9,10,58.7,26.4,64.8,41,6.1-14.6,22.9-30.9,64.8-41-.8.7-54.9,46.6-59,71.5,0,0,10.6,1.8,6.3,11.2,0,0,17.6.9,29.5,8.9,0,0,147.2-37.9,243.8-28.8,0,0,119,4.1,142.6,78.8,0,0-3.5,4.8-2.2,11.7Z"/>
</svg>