<?xml version="1.0" encoding="UTF-8"?>
<svg id="Layer_1" xmlns="http://www.w3.org/2000/svg" version="1.1" viewBox="0 0 4544.5 1169.4">
  <!-- Generator: Adobe Illustrator 29.6.1, SVG Export Plug-In . SVG Version: 2.1.1 Build 9)  -->
  <defs>
    <style>
      .st0 {
        fill: #caffd0;
      }

      .st1 {
        fill: #0e3b43;
      }
    </style>
  </defs>
  <path class="st0" d="M4542.5,832.5c-2.6-3.5-9-9.4-19.7-9.7h-4.2c-4.5-.3-9-1-13.9-1.6-8.1-1-16.1-1.9-24.8-2.3h-10l-20.3,2.9c-7.1,1-12.9,4.8-16.8,10.6l-43.2-1.6c-1-5.2-3.9-10-8.1-13.6-4.2-3.2-9-5.2-14.2-5.5h-7.4c-3.9,0-8.1-1-12.9-1.6-4.5-1-9.4-1.6-14.5-1.9-2.3,0-4.5-.3-7.1-.3-5.2,0-10.6-.3-15.8-.3h-10.3c-2.3-10-10.6-17.7-21.3-18.7-2.6,0-4.8-.3-7.7-.6-3.9,0-7.4,0-11-.3h-9.7c-2.6,0-4.8,0-7.1-.6-1.9,0-4.5-1-7.1-1.6-4.8-1.3-10.6-2.6-17.1-2.9h0c-7.4-.3-14.5,1-21,3.9-3.5-3.2-8.1-5.2-12.9-5.8l-27.1-3.2h-1.6c-2.3,0-4.5,0-6.8.6-1.6-.6-3.5-1-5.2-1.3l-77.1-8.4-84.2-10h0l-42.6-5.2h-5.5c-1.3,0-2.6-.3-3.9-.6h-4.2c-12.9-.6-26.1-2.6-40-4.8-13.9-2.3-28.1-4.2-42.9-5.2-1-.6-2.3-1-3.5-1.3-21.3-6.5-40-7.7-60-9.4h-1.9c-1,0-2.6-.6-4.5-1-3.2-.6-7.1-1.3-11.6-1.6h0c-5.8,0-11.6.3-17.1,2.3h0c-2.9-2.6-6.5-4.5-10.3-5.5-11.3-2.6-22.3-3.5-31.3-3.9-2.9,0-5.5,0-8.4-.3h-8.1l-52-11.6c-.6,0-1.3,0-1.9-.3-61.3-8.4-123.6-15.5-183.9-22.6-89.7-10.3-182.3-21-271.7-35.8-3.5-.6-7.1-1-11-1.3h-1.9v-4.2c0-2.6,1-5.8.6-10.6,0-18.7-5.5-30.3-9.7-40.7-1.9-4.2-3.5-8.1-5.2-12.9-4.8-15.5-5.2-45.5-5.2-69.7s0-26.8-1-38.1v-5.5c-1-11.6-1-13.9,0-27.4,2.3-21.9-9.4-52-18.1-65.2-10-15.8-28.7-21.3-38.7-23.2-5.8-1-18.4-2.3-28.4-2.9-16.8-.6-23.6.6-28.7,2.9-9,3.9-13.6,11.6-16.1,16.5-2.9,1.6-7.1,4.5-10.3,9-1.3,1.9-2.6,4.2-3.9,7.4-1.6,0-3.5-1-5.2-1-6.8-1-16.8-1.6-20-1.6-6.5,0-15.2-.6-21,0-4.2,0-6.1.6-30,12.6-6.1,3.2-21.3,10.6-25.2,13.2-5.8,3.9-9.7,8.4-12.3,11.9-2.6.6-6.1,1.9-9.7,4.2-2.6,1.6-3.5,2.9-9.7,9-2.6,2.6-8.1,8.4-9.7,9.7-11.3,9.7-18.1,17.1-27.8,27.1h0c-.6,1.3-2.6,2.6-4.2,3.9-4.2,3.2-9,7.4-12.9,12.9-10.3,14.5-15.8,32.9-18.7,48.4-.6-6.5-1-10-1.9-12.6-3.2-13.2-10-26.8-16.5-39.7-3.5-7.4-7.1-14.2-9.4-20-3.5-9-3.5-16.5-3.5-26.5s0-13.2-.6-21c-.6-7.1-3.5-13.6-6.1-18.4,0-.6-.6-1.3-1-1.6,1-4.5,1.6-11.9-1.6-20.7-8.7-21.6-41.9-30-45.5-31-8.4-1.9-29.4-6.1-40-6.8h-.6c-29-1.3-45.8,34.2-46.8,53.9-1,19.7,13.6,30.7,21.3,36.5,0,0,.6.3.6.6v21.6c-1.6,2.3-3.5,5.5-4.8,9.4-3.9,11.6-5.5,24.2-6.8,36.5-1,9.4-1.9,18.1-3.9,24.5-1,2.9-3.2,7.1-6.8,11.9-8.7,12.3-23.6,28.4-34.2,36.5-5.2,3.9-16.1,8.7-24.5,11,0-1.3,0-2.3-.6-3.5-4.2-16.5-4.2-29.7-4.2-46.5v-22.9c0-10-2.3-20-3.9-30-1.6-8.7-2.9-17.4-3.2-23.9,1-3.2,2.9-9,1.9-17.1-.6-5.8-5.8-22.9-7.7-26.8-2.9-6.5-7.7-11-11.6-14.8-1-1-2.3-2.3-3.2-3.2-3.5-8.4-11.6-13.9-20.7-14.2h-32.6c-4.2-.6-8.7.6-12.3,2.9-.6,0-1.6,1-2.3,1.3-11.6,6.5-28.7,16.5-26.5,45.8,0,5.5,2.6,12.9,9,18.7,1,6.1,1.9,15.8,1.9,19.4,0,7.1.6,11.6,1,15.5,0,2.3.6,4.2.6,6.5.6,9,.6,19.4,0,30.3,0,25.8-.6,55.5,8.1,82-1.6,0-3.5,0-5.2.6-1.9,0-3.5.6-5.2,1.3-2.9-1-6.8-2.3-11-2.3h-1.9c-1.9-1.6-3.9-3.2-5.8-4.2,0,0-.6-.6-1-.6-1.3-11.6-2.3-23.2-3.5-34.5-2.6-22.9-5.2-46.5-6.8-69.7v-3.9c0-4.2,1-9.4,0-14.8-1-6.8-3.5-11.6-5.8-15.5,0-.3,0-1-.6-1.3v-.6c1.3-7.7,0-12.6-2.6-21.6l-1.6-5.8c-6.5-21.9-14.5-49-25.5-67.8-4.2-7.1-29-30.7-36.5-34.5-7.1-3.5-13.9-5.8-21-6.1-12.9-.6-22.3,4.5-29.7,8.7-.6,0-1.3.6-1.9,1-2.9.6-7.4,1.6-12.3,4.8-1.9,1.3-3.2,2.3-9.7,9.4-4.8,5.2-8.4,9-10,14.8-2.9-1.6-7.1-3.5-12.3-3.5h-2.6c-8.1,0-31.6,5.5-36.8,6.8-18.7,5.2-68.4,34.8-81.6,51-9.4,11-28.1,41.6-38.1,63.6-1-24.2-2.3-48.4-3.9-72-1-16.5-1.9-33.6-2.9-50.3-3.9-82.6-12.9-166.2-21.3-246.5v-4.5c0-3.9.6-9,0-14.8-2.3-18.1-11.3-34.5-27.8-50.3-12.6-12.3-24.2-20-40-27.1-6.8-2.9-13.6-4.8-20-5.2h0c-11.6-.6-21.9,3.2-30.7,10.3-7.1-2.9-16.1-4.5-26.5-5.2h-15.2c-16.5,1.9-28.7,13.6-31.9,29.4-4.5,23.9-23.2,47.1-41,69.4-2.9,3.9-5.8,7.4-8.7,11-28.7,36.5-55.8,72-79.1,102-5.5-2.6-11-3.5-14.5-4.2-1.3,0-3.2-.6-3.9-1-22.9-9.7-75.8-49.4-101-71.6-6.1-5.5-12.3-12.3-18.7-19.4-9-10-18.4-20.3-29.7-29-4.2-3.2-8.4-6.5-12.6-9.7-22.3-17.1-45.5-35.2-69.1-51.3-28.7-19.4-37.8-23.2-70.7-29.4-.6,0-2.9-1-4.2-1.3-5.2-1.6-11.3-3.9-18.4-4.2-6.1,0-11.9.6-17.4,3.2-8.1,3.5-14.2,11-20.3,25.2-7.7,17.4-6.8,25.2-6.5,28.1,1.6,12.6,9.7,19.7,13.9,22.9,8.7,22.9,11.6,65.5,13.6,94.2,0,4.2.6,8.1,1,11.6,3.9,53.2,6.5,107.8,9,160.7.6,16.8,1.6,33.6,2.3,50.3,1.3,28.4-.6,58.7-2.6,88.1-2.3,32.3-4.2,65.5-2.3,97.8,1.9,30-1.6,54.5-6.1,83.3-1.6,0-3.2.3-4.8.6-2.3,0-4.8.3-7.4.6-12.6,1.6-25.8,2.9-38.7,4.2-12.3,1.3-24.8,2.6-37.1,3.9-5.8.6-11,2.6-15.2,4.2-2.6,1-5.8,1.9-7.1,2.3h-2.6c-1.3,0-2.9,0-4.5-.3-1.9,0-4.2-.3-6.5-.3h-7.1c-17.4,1-32.9,3.2-48.1,5.8-10.6,1.6-20.7,3.2-31.3,4.2-67.8,6.8-135.2,14.8-194.9,22.3-27.8,3.2-59.7,8.1-90.7,19-.3,0-35.5,13.2-43.6,20.3-11.3,10-11,26.1-11,36.8v.6c0,13.2,3.5,24.2,6.5,33.6,1.3,3.9,2.3,7.7,3.2,11.6,1.9,8.1,8.1,14.8,15.8,17.4,3.5,1,7.1,2.9,11.3,4.5,4.2,1.9,8.4,3.9,13.2,5.5,19,6.8,38.4,12.3,58.1,17.7,1.3.3,2.9,1,4.8,1.9.6,0,1,.3,1.6.6,4.2,5.2,10.6,8.1,17.1,8.4h6.8c4.2,0,9,1.9,14.8,3.9,5.8,1.9,12.6,4.5,20.7,5.8,2.6.3,4.8,1,7.4,1.3,10.6,1.9,20.7,3.5,31,6.1,50.7,12.9,91,20,126.8,21.6,7.4.3,14.8.3,21.6.3,27.8-.3,56.8-1,87.1-2.9h7.4c6.8,0,15.2,0,27.4-3.9,5.2-1.6,56.1-24.2,64.9-31.3,33.6-28.1,61-63.2,81.3-103.9,1.9-4.2,3.5-8.4,4.8-12.6.3-1,1-2.6,1.3-3.9.3,0,.6,0,1-.3,6.1-1,13.9-1.3,21.6-1.9,8.1-.6,16.1-1,23.9-1.9l4.5-.6c20.3-2.9,32.3-4.5,54.2-5.5,62.9-2.9,126.8-8.1,188.4-12.9,58.7-4.5,119.4-9.4,179.1-12.3h1.6c1.3,0,2.6,0,4.2.3,1.9,0,4.2.3,6.5.6h8.1c3.9-.3,7.7-1,11.3-1.9h0c0,.3,123.6-10.6,123.6-10.6,10.3-.3,21,0,31.9,0h18.1c3.5,0,7.1.3,10.6.6,3.5,0,7.4.6,11,.6h8.7c9.4,0,17.4-1,25.5-2.3,8.1-1,15.8-1.9,23.6-1.6,1.9,0,3.9,0,5.8.6,4.2.6,7.1,1,9.4,1.6,3.5.6,6.5,1.3,10.6,1.3s10.3,0,19-1c3.5-.3,8.1,0,11.9,0s4.2,0,6.5.3c2.6,0,4.8,0,7.4.3,9.4.3,20,.6,30.7-1.9h34.2c7.4.6,15.2,1.3,23.2,1.9,23.9,1.3,47.4,0,70.3-1.6,14.5-1,28.1-1.6,41.9-1.9h1c2.3,0,4.8.6,8.1,1.3,4.2,1,8.7,1.6,13.9,1.9h1.3c8.7,0,16.1-1.9,21.3-3.5,1.9-.6,4.5-1.3,5.5-1.3s1,0,1,.3h0c6.5,3.5,11.3,4.2,19.7,4.5h1c-3.5,3.9-7.1,8.1-10.6,12.3-5.2,6.1-10.6,12.3-14.2,15.8-3.5,3.2-8.1,6.8-12.9,10.3-8.1,6.1-17.1,13.2-24.5,21.9-14.5,17.1-35.2,52.9-44.2,72-6.1,12.6-12.6,25.8-19,38.4l-3.2,6.5c-2.3,4.5-4.5,8.4-6.1,11.9-7.7,13.9-12.3,22.9-14.5,47.4-2.9,30.7-1.9,40.3-1.6,43.6,1.3,12.3,8.1,23.6,14.2,33.6,2.6,3.9,5.2,8.7,6.1,11,.6,1.9,1.6,6.1,1.9,9.4,1,5.5,1.9,11.6,4.2,17.1,2.3,5.5,6.1,9.4,9,12.3,1.6,10.3,7.4,17.7,19,24.8,26.5,16.1,79.1,40.7,113.6,45.2,3.9.6,8.4,1,13.2,1.3,5.5,0,10.6,0,16.1.3h14.2c3.9,0,7.4.6,10.3,1,3.9.6,7.1,1.9,11.3,3.2,6.1,2.3,13.9,4.8,23.6,5.5,6.1,0,11.9,0,18.4-1.9,21-4.8,29.7-14.5,37.4-22.9,2.3-2.6,4.5-5.2,7.4-7.4,2.6-2.3,6.1-5.2,10-8.4,4.8-3.9,10.3-8.4,15.2-12.9,5.8-5.2,11-10.6,14.8-16.1,3.2-4.5,4.8-8.7,5.8-11.9,2.3-1.3,4.8-3.2,7.1-6.1,5.5-7.1,5.5-14.8,4.8-19.4,1.3-2.3,2.9-5.2,4.2-7.4,3.5-6.1,7.4-12.3,9.4-19,1-2.9,1-5.5,1.3-7.7,2.6-3.2,5.5-7.4,6.8-13.6,4.2-19.4,4.2-42.6,4.2-62.9v-24.2c0-10.6,1.3-21.3,2.3-32.3,1.6-21.3,3.5-43.2,2.3-64.5,0-5.8-1.6-11.3-2.6-16.1-.6-3.5-1.6-7.1-1.6-9.4,0-7.1-1.3-11.6-1.9-15.5,0-2.3-.6-4.2-1-7.1-1-7.7-.6-16.5-.6-25.5v-15.5l32.9,1.6c10.6,3.2,21.9,4.8,34.2,5.5,11.6.6,22.9,0,33.6-.6,7.4-.3,14.2-.6,21.3-.6h2.9c8.1.3,17.7,2.3,27.8,4.2,11.6,2.3,23.9,4.5,36.1,5.2,15.8.6,29-1.6,41-6.8l3.9,1c4.2,3.9,9.7,6.5,15.5,6.5s4.8,0,7.4-1c1,0,1.6-.6,2.6-1,1.9.3,3.9.6,5.8,1,6.5,0,11.9-1.6,15.5-3.2,4.2.6,7.1,1.6,8.1,2.3,3.9,4.5,9.4,7.7,15.5,8.4,3.5.3,7.1.6,10.6,1,11.6.6,22.9,0,33.6-.6,6.1-.3,12.3-.6,18.1-1,3.9,2.6,8.1,4.2,12.9,4.5h0l46.5,1.9c1.9,1.6,3.9,2.9,6.5,3.9,10,4.2,20,6.1,31.3,6.8h18.7c1.9,1.3,3.9,2.3,6.1,2.9,11.9,3.9,25.2,4.5,36.5,4.8h2.9c11,.6,19.4,1.9,28.7,3.5,6.1,1,12.3,1.9,19.7,2.9,2.6,0,5.2.6,8.1.6,10,.3,19,0,27.8-1,6.8-.6,13.2-1,19.4-1h1.3c7.4.3,17.1,2.3,26.5,3.9,9.7,1.9,19.7,3.9,29,4.2h2.9s.6.3,1,.6c11,7.1,24.2,8.7,35.2,9h8.1c4.5,0,8.7-1,12.6-2.9,4.8,1,8.7,1.3,11,1.6h1c4.2,0,7.7-.3,9.7-1h0c19.7,1.6,39,4.5,59.4,7.4,9.7,1.6,20,2.9,30,4.5,18.1,2.6,36.1,4.8,54.2,7.4,49,6.8,100,13.6,150,19.7,22.3,2.9,37.8,3.5,58.4,4.5h2.6c.6,0,1.6.6,2.3.6,2.3.6,5.5,1.6,8.7,1.9h0c76.5,16.5,130,15.5,130,15.5h3.2c9.7.3,19,0,27.8-.6,7.7-.3,15.5-1,23.2-.6h0c2.6,0,6.5,1,10.3,1.9,4.5,1,9.7,2.3,15.2,2.6h31.3c7.1,1.6,22.3,3.2,26.1,3.5,1.9,0,4.2.3,6.5.3,7.7.3,14.5,0,21.3,0s11.9-.3,17.7,0h1c11.3.6,21.6-7.1,24.5-18.1h12.3c3.5,0,7.1.3,10.3.6,2.9,0,5.5.3,8.4.6,1,3.5,2.9,7.1,5.5,10,4.5,5.2,10,7.4,22.6,11.3,13.2,3.9,16.1,4.2,17.7,4.2,10.6.6,19.4,1,28.1,1.6,20.7,1.6,38.4,2.6,54.5,3.5,17.1,1,32.6,1.3,45.8,1.3s22.3-6.5,26.5-17.1v-1h1c11.9.6,22.6-7.7,24.8-19.7,1.3-7.4-.6-14.8-5.2-20.7l3.2-1.9.3.3ZM1282.1,809c-34.2,8.7-71.3,12.3-111.3,10.3-16.1-.6-32.9-2.6-49.4-5.2-9-1.3-18.1-3.2-27.4-4.8,5.5-1,10.6-1.6,15.8-2.3,2.9-.3,7.1-.3,11.3-.3,3.5,2.3,7.7,3.5,12.3,3.9,8.1.3,14.2-2.9,19.4-5.8h13.9c6.5,0,12.9.3,19.4,0,35.8-2.9,72-7.4,106.8-11.9,7.1-1,14.2-1.6,21.6-2.6-11,9-22.9,16.1-32.6,18.4h.3v.3ZM1956.2,571.1c-.6,1.3-1.9,2.9-2.9,4.2-3.2,4.5-7.4,10.3-7.4,19,0,0,0,7.4,1.3,15.5-4.2.6-7.7,1.6-11.3,2.6-3.2.6-6.1,1.6-8.4,1.9-3.2-1.9-8.1-4.2-14.2-4.5h-5.8c-5.2.6-9.7,3.2-13.2,6.5h0c-5.2,0-10,.3-13.9,1-1.6,0-3.2.3-4.5.6h-2.3c-1.6,0-3.2-.3-5.5-.3-5.2,0-9.7,0-13.9,1.6h-3.9c-13.6,0-33.6,0-51.3,11h-1c-2.6-.6-6.1-1.6-10.3-1.9-3.2-.3-6.8-.6-10-.6-20.3-1-39.7,1.3-58.7,3.9-7.4,1-14.8,1.9-21.9,2.6-29,2.6-59.1,4.2-88.4,5.5-34.8,1.6-71,3.2-105.8,7.1-6.1.6-12.3,1.6-18.1,2.9,9-152.6,6.5-314.3-7.7-494,0-3.2-1-6.1-2.6-9,7.7,3.9,13.9,7.4,18.7,12.9,4.5,5.2,9.4,10.6,17.7,12.6.6.6,1.3,1.3,1.9,1.9,3.9,3.9,7.4,7.4,11,10,22.3,16.5,44.2,34.2,65.5,51.3,10,8.1,20.3,16.5,30.7,24.5,3.2,2.6,7.1,5.5,11,8.7,21.9,17.1,55.2,43.2,68.1,60,.6.6,1,1.6,1.9,3.5,2.6,5.8,7.4,15.5,21.3,23.2,4.8,2.6,8.1,3.9,10.3,4.8h.6s1,1,1.9,1.9c5.8,5.8,13.6,9.4,21.9,9.7,25.2,1.3,42.6-24.8,44.5-28.1,9.4-14.5,14.8-29,20.3-42.9,1.6-3.9,2.9-7.7,4.5-11.6v-1h0c2.3-1.6,5.5-3.9,9-7.7,5.5-5.8,9-11.9,11.6-17.1,1-1.6,2.3-4.2,2.9-5.2,13.6-14.8,24.8-31.6,35.5-48.1,4.8-7.4,9.7-14.5,14.5-21.3,1.9-2.9,6.1-7.7,10-12.3,6.5-7.4,11.6-13.6,15.5-19v7.4c-.6,26.1-1.6,52.9,2.9,80.7l-1.6,33.9c0,5.8.6,10.3,1.3,13.2v1c1.3,82,11,156.8,21,235.9,1,6.8,1.6,13.6,2.6,20.3.6,6.5,2.3,11,3.2,14.5,1.3,3.5,1.3,4.2.6,7.4v-.6h.6ZM2268.3,464.3c-2.6,9.4-1.6,17.4-1,22.6v3.5c-1.9,4.5-7.1,13.6-9,17.4-6.5,6.1-28.4,23.9-33.9,27.1-7.4,3.9-16.8,5.8-26.5,8.1-5.8,1.3-11.9,2.9-18.1,4.5.6-4.2,1.3-8.7,1.3-13.6,5.5-29,22.9-56.8,44.9-71.3,3.9-1.9,17.7-8.4,23.6-10.6h3.2c1,1.3,2.3,2.6,3.9,3.9,3.2,2.6,7.7,4.5,12.6,5.8,0,.6-.6,1.6-1,2.6h-.3.3ZM2701.6,873.2c-.6,20.7-2.3,41-5.2,62-2.9,20-5.8,33.9-13.2,49-10.6,21.6-22.6,46.5-41,59.4-1.9,1.6-3.2,1.9-3.5,2.3h-2.6c-2.9,0-6.5,0-11.6,1h-1.6c-15.2,2.3-24.5,3.5-39.7,3.5s-5.8.3-8.1,1c-8.4-3.9-27.4-15.2-33.9-20.3-6.1-4.8-18.1-15.8-23.2-21.3-1.6-5.5-3.2-19-2.9-24.8,0-.6,1-1.3,1.3-1.9,2.3-3.5,5.2-8.4,6.8-14.5,10.3-40.3,11.9-42.6,37.4-76.5l1.6-2.3c4.5-6.1,7.7-12.9,10.3-19,1.6-3.2,3.2-6.8,4.2-8.7,1.6-1.9,7.4-5.8,10.3-8.1,6.8-4.8,12.6-9,16.8-14.8,3.9-5.2,5.2-10.3,5.8-13.6,5.2-5.8,19-17.7,24.5-22.6,2.3-1.9,4.2-3.9,6.1-5.2,2.3-1.9,5.5-4.5,8.7-7.1,5.8-4.5,11-8.4,15.2-12.9,4.5-4.5,8.1-9,11.3-12.9h0c4.2-4.8,8.1-9.7,13.2-14.8,1.9-1.9,4.2-4.2,6.1-6.8.6-.6,1.3-1.3,1.9-2.3,3.2,44.9,5.8,88.4,4.5,132.3h.3ZM3010.1,513.4c-1.3,2.3-4.2,4.8-7.1,7.4-3.2,2.9-7.1,6.5-10.3,10.6-5.2,6.1-9.4,12.9-13.6,19.7-6.1,9.7-12.6,19.4-18.7,23.6-7.1,4.5-17.7,11-26.5,15.8-1.9,1.3-3.9,2.3-5.8,3.2s-4.8,2.6-7.1,3.5c-8.4-1.3-21.3-5.5-26.1-9-1-1-2.9-3.2-4.2-4.8,0-22.9,6.8-43.6,18.7-55.2,1.3-1.3,2.3-2.3,3.2-3.2,5.8-5.5,7.1-7.1,13.6-16.1,4.2-5.5,26.8-28.7,32.3-32.6l.6-.3c2.3,1,4.8,2.6,8.1,3.5,7.7,2.6,8.1,2.9,10,4.2,1.9,1.3,4.8,3.5,9.4,6.5,8.7,5.5,20,6.5,26.1,6.8h3.2c-2.3,6.5-4.8,13.2-6.1,15.8v.6h.3Z"/>
  <path class="st1" d="M1823.9,652.8c9.7-6.5,25.2,4.8,26.8-10.3-13.9,0-29,.3-41,8.7l14.2,1.6ZM2456.7,630.5c4.2,0,8.4-1.6,13.6-1.6,8.1.3,15.2,3.9,24.2,1.3-3.2-6.8-13.6-3.9-20-4.8-7.4-1-12.3-3.9-20.7-2.6-2.9.3-5.2,2.9-8.4,2.9-6.1,0-11.9-7.4-18.4-1.9l.6,4.8c9.7-1.3,19,1,29,1.3v.6h0ZM3728.7,749.3c-13.2-3.2-26.8-3.2-40.3-3.9l33.6,7.1,6.8-3.2ZM4453.1,857l-109.4-4.2c0,1.3,21.9,7.4,23.9,7.7,9.7.3,19,1,29,1.6,31.3,2.3,67.4,4.5,98.7,4.5s5.5-1.6,2.9-3.9l-45.2-6.1h0v.3ZM3922,777.7c2.3,0,7.1,1.9,6.8-1.6-31.3-1-61.3-9.4-92.6-10.3l12.6,4.2c25.2,1.3,47.4,7.4,72.9,7.4h0l.3.3ZM3770,757.3c15.5,1,32.6,4.8,48.1,7.7l14.5-1.3c-19.4-5.8-36.8-7.1-56.8-8.4-7.7-.6-14.8-3.9-24.2-1.3,3.2,8.1,12.9,2.6,18.4,3.2ZM4157.2,804.4c6.8.6,11.3,1.9,17.4,2.9,3.9.6,7.7,1.9,7.1-3.5l-27.1-3.2c-2.6,1.9-.6,3.9,2.6,3.9h0ZM4232.4,815.7c8.4.6,21-2.6,30.7-.6l12.9-2.9c-11.9-1-23.9-.6-35.8-1.6-11.3-1.3-22.6-7.7-33.9-2.6,0,1.3,24.2,7.7,25.8,7.7h.3ZM4136.2,803.5c3.2-.6,5.5,1.6,4.8-3.9l-96.5-10.3,10.6,4.2c23.9.6,58.4,14.8,81,10h0ZM4517.3,846.7c-14.8-1.3-29.4-3.9-44.5-4.2l-20.3,2.9,71.6,3.5c.6-3.2-4.2-1.9-6.8-2.3h0ZM3324.4,716.3c11.6,1,23.2,2.6,34.8,3.5,4.8.3,12.9,5.5,16.5-1l-53.9-6.5c-2.6,1.9-.6,3.9,2.6,3.9h0ZM3418,727.6c0,3.5,6.5,2.6,8.1,2.6,4.5.3,9.7,1.3,13.9,1.3s3.2,0,3.2-3.9c-4.2.3-24.8-6.5-25.2,0ZM3258.6,715.1l-5.2,8.4c0,4.2,17.7,3.5,21.9,5.8l18.4-2.9c-11.3-6.5-26.8-1.3-35.2-11.3h0ZM3505.4,736c-11.6-1-23.6-3.5-35.5-2.9-.6,3.2,4.2,1.9,6.8,2.3,15.8,1.3,31.3,3.5,47.4,4.2-3.2-7.7-13.2-3.2-18.7-3.5h0ZM4055.6,824.8l2.3-3.9c3.2,6.1,8.1,2.6,9-3.5l-8.4-2.6c-2.6,7.7-12.6,1.6-19.4,2.9l-5.5,7.4,11.6,2.6-3.5-7.7c6.5-1,9.4,1.9,14.2,4.5h-.3v.3ZM4198.2,843.2c-1.6-.3,0-3.5-3.9-4.2-6.1-1-4.2,2.6-6.5,3.5-5.5,2.6-17.7-2.6-12.6-6.5,1.9-1.3,5.8-.6,4.8-5.5-5.5-.6-11.3,0-16.5-.6-6.8-1-19-7.4-22.3-1,9.4,5.5,18.7,3.5,28.7,7.1.6,3.2-2.3,1-3.5,2.3-1.3,1.6,0,5.2-1.6,5.5-13.9-4.5-26.5-.6-40.7-1.9-12.3-1.3-24.2-2.6-36.8-3.5-11.9-1-19.4-5.2-32.9-1.6-2.9.6-3.2-1.3-2.9,3.9,2.6,0,5.5,0,8.1,1,27.1,8.4,48.7,2.3,75.8,2.9,9,0,18.1,3.9,27.4,4.5,8.1.6,17.7-1.3,25.8,0l-.6-3.9c3.9-.3,6.1,3.5,9.7,4.2,4.8,1,17.4,2.6,22.9,3.2,15.5,1.6,30-.6,45.5,0l-12.3-4.5c-18.1-1.6-38.1,0-55.8-4.5h0v-.3ZM3548,781.2c-6.8-.6-13.9.3-20.3-1.9-5.2-6.8,6.5,2.6,4.2-3.5-1.9-4.8-21-22.9-25.8-24.5-6.5-2.3-13.9-1-20.3-1.9-19.7-2.9-38.4-5.8-57.8-8.7-3.5-.3-7.1,0-10.6-.6v5.8c6.5-3.2,10.6.3,16.1,1,21.3,1.6,50.3,4.2,70.7,9.7,3.5,1,8.7.6,7.1,5.5-16.1-2.3-35.5,0-51.3-2.3-16.8-2.9-31.6-6.8-49.7-8.4-4.2-.3-11.6-5.8-12.9,2.3,0,2.3,17.4,8.7,8.1,11-5.5,1.3-25.2-4.2-32.6-5.2-4.2-.6-8.4,0-12.6-.6-1-12.3,13.2-5.5,21.9-7.4,4.8-1,4.2-5.5,7.1-6.1,5.2-1.6,19.4,4.2,16.5-4.2-1.9-5.5-9.7-1.3-14.5-1.6-6.5-.3-16.8-9.4-21.3-1.3-2.3,4.2,1,10.3-4.2,9.7-3.2-.6-11-6.1-13.2-8.4-2.3-2.3-2.3-5.8-2.6-5.8,0-.3-4.5-1-3.9,1.3l-1.3,4.5c-15.2-2.9-28.4,4.2-43.6,1.6-1.9,6.1,3.9,2.3,5.8,5.2,1.6,2.9,1.3,9,3.5,12.3,10,3.2,22.6,3.5,33.2,4.2,19.7,1,31.3,4.2,50,6.1,18.1,2.3,35.2-1.6,52.6-1.3,17.7.3,41,7.4,57.8,8.4,3.9,0,8.1-2.3,11.3-1.3,1.6.3,1.6,4.2,4.2,5.8,8.4,5.5,21.6,5.2,31.3,5.8,2.6-1.9,0-3.5-2.6-3.9v-1h-.3ZM4366,835.7c-11.9,1.3-24.2-2.9-35.5-3.9-15.8-1.3-33.2,0-48.4-2.3-6.1-1-13.6-4.5-19.4-4.8-5.5-.3-11,2.6-16.5,1.3,0,4.2-1,3.5,2.6,3.9,7.4.6,14.8.3,22.3,1l-3.9,3.5c3.5,0,6.8.6,10.3,0,15.2-1.9,31.3,0,46.8.6,11.6.6,23.2,1.6,34.8,1.6s7.1,1.9,6.8-1.6v.6h0ZM3941.3,780.6c13.9,1.6,28.4,3.9,42.6,3.9s7.1,1.9,6.8-1.6l-53.9-6.5c-1,5.5.6,3.5,4.5,4.2ZM3955.5,824.8c-11.3-5.8-33.6-5.2-47.1-7.1-5.8-1-11.3-3.9-17.1-4.8-16.5-2.3-33.2,2.3-50-.6-10.6-1.6-25.5-11.9-31-12.6-2.9,0-4.5,3.5-9.4,2.9-12.9-1-31-6.8-42.6-7.7-4.8-.3-9,2.3-15.2,1-5.8-1-11.6-5.5-19-6.8-52-7.4-106.5-3.2-160-13.6-2.9-.6-11.3-4.8-12.3-7.4l10-6.1-15.5-.6,1.6,5.8-7.7,4.5c0,6.5,29.7,11.3,35.5,11.6,2.9,0,6.1-1.3,9.4-1,31.3,2.3,61.3,8.1,92.6,12.3,68.1,9,136.2,18.7,203.9,27.1,22.6,2.9,37.4,3.5,59.7,4.5,5.8,0,11.9,3.9,18.4,2.9,1.3-4.8-.6-3.5-3.5-4.8l-.6.6h0ZM3629.6,733.1c-151.7-21-305.9-33.6-456.3-58.4-18.4-3.2-26.8,4.5-32.3-18.7-2.6-10.3,0-12.9,0-20.7,0-20.7-8.1-28.7-13.6-46.5-9-28.1-5.2-81.3-7.4-113.6-1.3-16.8-1.6-19,0-36.8,1.3-13.9-6.8-38.1-14.2-50-4.5-7.1-14.8-11-22.9-12.3-7.4-1.3-37.4-4.2-42.9-1.6-3.5,1.6-5.8,9-9,12.3-2.3,2.3-6.1,2.9-7.1,4.8-2.6,3.5-5.2,13.6-1.9,17.4,1,1.3,9,4.5,1.9,6.1-10,2.3-23.2-5.8-32.3-7.1-7.4-1.3-27.4-2.3-34.8-1.6-2.6,0-40.7,19.7-44.5,22.3-5.5,3.5-8.4,10.3-12.3,12.9-3.2,1.9-7.4,1.6-9.4,2.9-1,.6-13.2,13.9-16.8,17.1-10.6,9-16.8,15.8-26.5,25.8-4.2,4.5-11.6,9-15.2,13.9-11.3,16.1-16.8,43.2-17.7,62.9l-38.1,8.1c-4.2,0-6.5-38.1-7.7-43.2-4.5-17.7-18.1-39.7-24.8-56.8-7.7-20-3.9-34.2-5.8-53.9-.6-6.1-7.1-14.8-7.7-20.7,0-4.5,2.9-7.7.6-13.6-2.9-7.4-21-14.5-28.7-16.5-8.4-1.9-27.8-5.5-36.1-6.1-11.6-1-21.3,21.3-21.9,31-.6,11.6,16.5,16.5,22.3,26.1,3.9,6.5,0,8.7,0,13.6s1,18.1,0,24.8c0,2.6-4.2,5.8-5.8,9.7-5.8,17.1-4.8,41.9-10,60-2.9,9.7-12.3,22.9-22.6,34.8-9.4,10.6-19.7,20.7-27.4,26.1-11,8.1-42.3,21.6-54.9,14.8-8.4-4.5-5.8-13.9-7.7-20.7-7.1-27.4-4.2-46.8-5.2-74.9-.6-17.7-7.4-40.3-6.8-56.8,0-4.2,2.6-7.1,1.9-12.9,0-2.3-4.5-16.8-5.5-19-2.6-5.5-12.3-11.3-14.8-18.4h-31.6c-11.6,6.1-18.1,8.7-16.8,23.9,0,4.2,3.9,3.2,6.5,7.1,2.3,3.2,4.5,26.8,4.5,32.6,0,9.7,1.3,12.9,1.6,21,2.9,44.9-10.3,112,33.6,143.3,4.5,3.2,10.3,5.5,15.5,7.1,0,5.2,0,2.9-2.9,3.5-17.4,4.8-15.5,0-29.4-1.3-13.6-1-24.8,1.6-40.3,0-6.1-.6-19.7,1-22.9-4.8-1.9-3.5-.6-8.1-4.2-12.9-6.1-7.7-17.1-8.7-18.4-22.3-3.5-35.2-8.1-71-10.6-106.8,0-5.5,1.6-11.9.6-17.4-.6-5.2-6.8-11-6.8-18.1s2.3-5.5-1.3-17.4c-6.1-20.3-14.2-50-24.8-68.1-1.6-2.9-24.2-23.9-26.8-25.5-14.2-7.4-20.7-1.3-32.3,4.8-2.6,1.3-6.1,1-8.1,2.3-.6,0-10.3,10.6-10.3,11.6,0,1.6,3.9,7.1,4.5,10.3s-.6,8.4,0,10c0,0,5.8,2.6,8.4,4.5,7.4,6.5,15.2,19.7,13.2,29.7l-17.4-18.4c-8.4-1.6-17.1-15.2-21.6-17.4-5.2-2.6-11-.6-16.5-1.9-2.9-.6-4.8-3.9-7.4-3.9-4.8,0-25.5,4.5-31.6,6.1-14.8,4.2-60,31.3-69.7,43.2-10,11.9-35.2,54.5-38.7,69.1-1,4.2,0,8.7-1.3,12.6-5.5,17.1-18.7,51.3-11.6,68.7,2.9,7.1,2.9,8.7,5.2,15.8,3.9,12.6,14.2,8.7,17.7,13.6,3.2,2.3-1.3,6.8,0,8.4.6,1.3,9,5.5,9,9.4l-15.8,4.2c.6,21.9,19.4-5.5,28.7,9l-61.6,6.1-6.5-1.6c-4.8-6.8,22.6-6.1,26.5-6.5,3.2,0,6.1,1.3,8.7-2.6,0-4.8-30.7-9-34.8-3.5-1.3,1.9-3.2-1.3-3.5-2.3-1.3-6.1,1.9-12.9,1.6-18.4,0-8.4-4.8-20.3-5.2-30-.6-16.8,2.6-35.2,2.6-52.3,0-57.4-4.5-115.2-7.4-172.6-3.9-81.6-12.6-164.2-21.3-245.2-.6-6.1,1-12.3,0-18.7-1.6-14.5-10.6-26.5-20.3-35.8-10.3-10-19.4-16.5-33.2-22.6-17.4-8.1-29.7.3-35.2,18.1-7.7,2.3-6.1-7.1-10.3-10.3-7.4-5.5-25.2-6.5-34.2-5.5-5.8.6-10,4.5-11,10-6.5,34.2-33.2,63.6-54.5,90.7-27.1,34.5-53.2,68.4-80,103.3-3.9,4.8-9,11.3-13.6,15.5-7.1,7.1-4.5,0-8.1-4.8-5.5-8.1-16.1-6.8-23.9-9.7-27.8-11.6-83.9-54.9-107.8-75.8-16.5-14.5-30-34.2-47.4-47.8-26.5-20.3-52.9-41.3-80.3-60-25.2-17.1-31.6-20-61.6-25.5-7.7-1.3-18.1-7.4-26.1-3.9-4.2,1.9-13.6,23.2-12.9,28.4.6,6.5,8.1,6.8,10.6,12.6,12.9,28.7,15.5,84.2,17.7,116.8,5.2,70.3,8.1,141.3,11.6,211.4,2.9,60.7-8.4,125.5-4.8,185.5,1.9,31.9-1.3,57.4-6.5,88.7-3.2,20.7-14.8,18.7-32.9,21-25.2,3.2-50.7,5.2-75.8,8.1-7.1,1-15.2,5.8-23.9,6.5-7.1.3-14.2-1.3-21-1-28.1,1.3-51,7.1-78.1,10-65.5,6.5-129.7,14.2-194.3,22.3-28.7,3.5-57.8,7.7-85.5,17.7-5.2,1.9-33.2,13.6-35.8,15.8-3.2,2.9-2.9,14.5-2.9,19.4,0,14.8,5.8,26.5,9,40.3,8.4,2.9,16.5,7.1,24.8,10.3,18.4,6.5,37.4,11.9,56.5,17.1,6.8,1.9,13.2,5.8,20.7,6.5l-2.3,3.9c16.8-1.9,29,7.1,45.2,10,13.9,2.6,26.8,4.5,40,7.7,44.9,11.6,95.8,21.9,142,21.3,28.7-.3,56.8-1,85.8-2.9,11.6-.6,16.5,1.3,29-2.6,6.8-2.3,52.9-23.9,56.8-27.1,31.6-26.5,56.8-59.4,75.2-96.2,3.2-6.5,5.5-17.7,9.7-23.6,1-1.3,11.6-5.8,13.6-6.1,14.5-2.6,32.9-2.3,47.8-4.5,23.6-3.2,36.1-5.2,60.7-6.5,122.6-5.8,244.6-19,367.2-25.2,6.5,0,12.9,1.3,19.4.6,10-1,21.3-5.5,31.9-4.5h0l92-7.1h2.6c18.1-1.3,36.1-.6,54.2-.6s25.5,1.9,36.8,1.6c19.7,0,36.8-6.1,58.4-3.2,17.7,2.6,14.2,3.5,32.9,1.6,16.8-1.9,38.4,3.5,56.1-1.3h38.7c44.5,5.5,89.4-1,133.6-1.6,9.4,0,17.1,3.2,25.2,3.2,11.6.3,20.7-7.4,32.6-3.9,9.7,2.9,3.5,3.5,17.4,4.2,12.6.3,22.6,3.5,32.6,4.5,4.8.3,13.2-3.5,16.8-1.3,1.9,1.9,2.3,3.2,1.3,5.8,0,1-11.3,12.9-12.9,14.2-3.5,3.2-7.4,3.5-11.3,6.1-9.7,6.8-27.1,30.3-37.8,40-11,10-25.8,19-35.5,30.3-12.9,15.2-32.3,49-41,66.8-7.1,14.8-14.8,30-22.3,44.9-10.6,21.6-15.8,23.9-18.4,51-1,10-2.6,29.4-1.6,38.7,1.3,11.3,14.5,27.1,19,38.4,3.2,8.1,3.5,19.7,6.1,25.8,1.3,3.5,8.1,7.1,9,10.3,2.9,7.7-1.9,8.7,9.4,15.5,25.8,15.5,75.2,38.1,104.2,41.9,17.1,2.3,36.8,0,53.9,2.9,16.8,2.6,25.2,11.6,43.9,7.1,19.4-4.5,21.3-13.2,34.5-24.8,9.4-8.4,25.8-20.3,34.5-30.7.6-1,1.3-1.6,1.9-2.6,3.2-4.8,3.2-9.7,5.8-13.9,2.6-3.9,7.1-4.2,7.4-5.2,1-1.3-.6-5.8,0-9,2.3-8.7,12.6-21,14.8-28.7,1-3.2-1.3-6.1,0-9.7,1.3-4.2,6.5-5.8,7.4-10.3,5.5-24.2,2.9-57.8,3.9-82.9,1.3-31.3,6.5-63.9,4.5-94.5-.6-8.1-3.9-17.1-4.5-25.8-.6-10-1.9-13.2-2.6-21.3-1.9-17.7,0-37.8-1.6-56.1-.6-7.7-5.2-9.7-5.2-10.3-.6-3.9-1.6-15.5,1.9-18.1l3.5,15.8,61.6,2.9c28.7,9.4,56.5,4.2,84.9,4.2s74.5,20.7,104.5,1.3l22.3,4.8,1.6,3.9c-1-9,3.9-9,9.7-12.6,1.9-1.3,3.5,0,2.6-4.2-5.8.6-10-4.8-14.5-6.1-17.7-4.8-38.4-.6-54.2-9.7l41.6,1c14.8,5.5,46.1,2.3,56.5,15.2,1.3,1.6,2.3,2.3,1.6,4.8-9.7.3-23.6,2.3-29.7,10.3,5.2,2.3,9.4-3.2,12.6-3.2,10,0,23.9,2.9,30.3,11.3,22.9,2.9,45.2-1.6,68.1-1l5.2,4.5,52.3,2.3,1.3-3.9-2.6-4.2c11.9,1.9,6.5,4.5,10,13.2,13.9,5.8,25.8,5.5,40.7,4.8l-2.3-17.7c-4.2-1.6-8.7-2.6-13.2-2.6s-7.7,2.9-9.7,2.9c-8.4,0-22.3-8.1-28.7-8.4-6.1-.6-11.9,2.9-19.4,1-7.7-1.9-16.8-11.9-2.3-11.6-5.2-11-14.8-1.3-18.4-1.6-1.6,0-3.9-2.6-6.1-3.2-10.6-2.3-21.3-3.9-31.9-6.1-7.7-1.6-19.7-11.3-7.7-9.7,5.5.6,9.7,3.9,15.2,4.5,14.8,2.6,35.2,4.8,50,6.1,6.1.6,36.5,1.3,39-1.9l1.3-5.8c-13.2-1.9-26.5-2.6-39.7-3.9-3.9-.3-7.1-2.3-11.3-2.6-12.6-1.3-52.9,0-60.7-7.7-3.5-3.5-4.8-8.7,1.3-8.7s7.4,2.6,11.6,2.9c4.2,0,8.1-1.3,11.3-1,8.4.6,18.7,8.1,28.1,6.5l-3.5-3.9,5.5,4.2h23.6l2.3,7.1c8.1-3.2,14.8-3.5,23.2-2.9,31.9,2.9,67.8,10,100,14.5,88.7,12.3,178.8,19,267.8,31.9,20,2.9,39,11,60.7,8.7l-52.9-11.9v1h.3ZM1362.8,771.8c-13.2,24.2-47.8,53.6-74.5,60.3-54.9,14.2-113.9,14.5-170.4,5.8-30.7-4.5-61.6-12.9-92-18.1-8.1-1.3-19.4,3.2-18.1-8.7-5.2-.6-7.4,5.8-11.9,7.1l-1.3-11.6c-9.4,8.7-16.1-3.5-27.1-1.3-.3-2.9,3.5-2.6,5.5-2.9,10-2.6,33.2-4.2,44.2-4.2s5.5,2.3,7.4,1.9c1.9,0,3.9-3.9,6.8-4.8,4.5-1.3,13.9-2.3,19.4-3.2,18.7-3.2,38.1-6.8,56.5-9,8.1-1,19.4,0,28.1-.6-5.5,9.4,8.4-.6,11-1,11-1.9,26.5,0,38.1-.6,48.7-4.2,97.1-10.6,145.9-16.5,11.9-1.3,21.3-6.5,34.2,0,.3,2.6-.6,4.8-1.6,7.1h0v.3ZM1708.7,668.6l-61,2.9c-.6-4.2.6-3.9,3.9-4.5,15.5-2.9,33.9-1.6,49.4-2.6,6.5-.3,17.1-7.1,20.3,1.3-5.8,0-10.3-2.9-12.9,3.2h.3v-.3ZM1956.2,647.6c-25.2,1.6-49.7,4.2-73.9,4.2s-5.8.6-4.8-4.2c3.5,0,7.1-1.3,10.6-1.6,2.3,0,19,2.6,14.8-3.2-9-4.5-17.1-1.6-26.1-1.3-5.5,0-14.8-2.6-18.7,1.9-2.3,2.9-1.3,7.7-3.2,9-1.6,1-25.5,5.5-29.4,5.8-14.2,1.3-30,1.9-44.5,1.9s-6.5,1.6-9.7,1.6-10.3-1.6-10.3-4.5l41-3.9c-5.8.3-10.6-2.3-16.1-2.9-29-2.9-57.4,2.9-85.8,5.5-63.9,5.8-131,5.5-193.9,12.6-15.5,1.6-30.7,6.1-46.1,7.4.3-7.4.6-14.8,1-22.3,10.3-165.2,5.8-332.7-7.4-498.2-9.4-16.5-9.7-35.2-11-53.9,10.6-2.3,11.6,3.5,17.1,7.4,17.7,12.3,37.4,16.5,51.6,32.6,7.7,9,4.2,3.2,12.3,7.4,2.6,1.3,11,11,14.8,14.2,33.2,24.5,64.5,51,96.8,76.5,23.2,18.4,65.8,50.3,82.9,72.6,6.5,8.4,4.5,14.2,16.1,20.7,9.4,5.2,10,2.6,18.4,11,9,9,24.2-6.5,29.4-14.2,10.6-16.1,15.5-33.2,22.6-50.3,4.5-11.3,8.1-9.7,14.8-16.5,5.8-5.8,8.4-15.8,13.6-21.6,18.1-19.7,32.3-44.5,48.1-67.1,6.8-9.7,24.5-28.1,29-37.1,2.3-4.5,1-9,2.9-12.9,2.3-4.5,11.3-7.7,13.9-11,2.9-3.2,8.1-23.2,17.1-16.5,3.9,2.9,6.1,27.8,6.1,33.9,0,37.4-4.2,75.2,2.6,112.6l-1.9,36.8c0,3.9,1.3,7.7,1.6,11.6,1.3,87.8,12.3,168.1,23.2,254.6,1.6,12.3,7.1,15.2,3.5,31.3-1.6,6.8-9.7,14.8-9.7,17.1s1.6,16.5,2.6,17.7c1.3,1.9,4.2,1,5.2,1.9,2.3,1.9,6.8,7.7,8.1,10.6-3.2,15.8-16.5,8.4-26.5,8.1-13.6,0-25.8,7.4-39,4.8-3.2-.6-5.2-4.5-9-3.9l-4.5,11.3c4.5,4.2,38.4-5.5,45.8-5.5s9.4,2.6,15.2,2.6,22.3-7.1,21.9,2.9c-11.3,4.2-22.9,1.6-33.9,2.3h1ZM2332.5,638.3c-16.1,1.9-41.9-3.2-60-2.9-13.2,0-26.8,3.2-40,3.9l12.6-9.4c10.6-4.5,15.2-1,23.9-.3,18.7,1.3,40-3.2,57.8-1.3,8.4,1,15.5,8.7,5.5,10h.3ZM2302.8,652.5c-8.7,0-16.5-1.3-25.2,1-12.9-3.5-26.5-1-39.7,0,0-2.3,6.1-4.2,8.1-4.5,3.9-1,13.2-2.3,16.8-2.3s8.7,2.6,13.2,2.9c8.7.3,20.3-3.2,30-.6,2.3,2.3,0,3.9-2.9,3.9h0l-.3-.3ZM2322.5,607.6c4.8,6.5,11.6,16.8-1.3,16.8s-6.5-1.9-9.4-1.9-7.4,1.9-11.6,1.3c-4.2-.6-6.5-3.9-9-4.2-5.2,0-12.6,4.5-19,2.6,4.5-9,16.5-9.4,23.9-13.6,11.6-6.5,12.6-19.4,26.5-1h0ZM2157.3,532.7c5.8-34.8,26.5-70.7,56.5-90,2.3-1.3,28.4-13.2,30-13.6,2.3-.3,21.3-1.6,22.6-1,3.9,1,3.5,8.1,5.2,9.4,1.9,1.6,16.5,3.5,20,3.2,7.7-.3,21.9-10.3,17.7,7.1-3.2,13.2-15.5,16.1-17.7,23.2-2.6,8.7,2.3,16.8,0,26.1-.6,2.6-11.9,23.9-13.6,25.8-5.2,5.8-34.8,29.7-41.9,33.2-18.4,9.4-40.3,10.3-57.8,17.7-5.2,2.3-7.4,8.7-14.2,4.5-1.6-1-8.7-11.9-9-14.2-1.3-10.6,3.2-21.3,2.6-31.9h0l-.3.3ZM2185.6,668.3c-13.9.3-28.1,0-41.6,0l13.6-4.2,16.8-1.6c2.9,3.5,20.7-1.3,20,3.5,0,2.9-6.5,2.6-8.7,2.6h0v-.3ZM2315.4,668.6c-4.5,0-6.5-4.2-9-4.2-4.8,0-16.5,4.5-23.9,4.5-15.2,0-31.3-1.6-46.5-1.9-8.4,0-19,1.3-27.1.3-3.5-.3-6.5,0-8.4-3.5,8.1-3.2,17.7-2.6,26.5-3.2,1.6,0,3.5,1.6,5.5,1.3,4.2-.6,8.1-6.5,14.8-.6l1.3-5.8h6.8c0,.3-2.3,6.1-2.3,6.1,6.5,3.2,12.9-2.9,16.8-3.2,2.9,0,6.1,2.3,9.4,2.6,20.3,1.6,45.2-2.9,68.1-2.6,3.9,0,7.7-1.9,11.6-1.6,3.9.3,16.5,6.5,17.7,10.6-9,0-16.8-3.5-26.1-3.2-10,.6-24.5,4.8-35.2,4.2h0v.3ZM2345.4,689.2c-7.4-6.8-17.1,1.3-23.9-6.1,3.9-4.2,12.9-6.1,17.7-2.9,1,.6,1.3,3.2,2.3,4.2.6.6,11.9,4.2,4.2,4.5h0l-.3.3ZM2372.8,686.7c-6.8,0-11.9,1-17.7,1.3-6.1,0-3.2-3.9-8.4-4.5,5.5-7.7,20,1.9,29-.6,2.3,2.3,0,3.9-2.9,3.9ZM2682.3,618.3c4.8-5.2,21.3-29.4,22.6-7.7,1.6,25.2-15.5,27.4-36.1,22.6,1.9-7.7,9.4-10.6,13.2-14.8h.3ZM2672.9,637.6l14.5,4.8c-.6,5.5-25.8,4.2-31.3,5.2-1.6-7.4,11-11,16.5-10h.3ZM2633.5,660.2l16.5-1,21.3-1c-5.2,6.8-12.6,5.8-20.3,5.5-6.5-.3-13.2-.6-18.7,4.2l1.3-7.7ZM2489.6,652.5c3.5-6.8,20.7,0,25.8,0,8.1,0,27.8-9.7,27.8,7.1-3.2.6-.6-4.2-2.6-3.9-6.5,1-9.7,1.9-15.5-2.9-1,4.5-21.6,5.2-27.1,4.5-1.6,0-10.3-1.6-8.4-5.5v.6ZM2442.8,670.5c-11.6-11.3-22.6,5.8-33.6-4.2,6.8-9.7,9.4-4.2,16.5-4.2s7.1-2.6,10.3-2.9c8.7-1,17.1,6.1,6.5,11.3h.3ZM2480.3,688l-26.1,1-2.6-8.7,1.9-1.9c4.8-3.5,25.5-1,26.8,3.5.6,1.9,0,4.5,0,6.5h0v-.3ZM2471.5,655c-7.7,0-11-1-17.7-1.6-5.5-.3-11,2.6-16.5,1.3l12.9-7.1c10.3,4.2,18.7,2.6,29,1.3,3.2-.3,4.2-3.2,6.8,1.3-2.9,9.7-8.7,4.8-14.5,4.8h0ZM2615.8,672.8c-34.2-2.9-70-2.3-104.5-4.8-8.1-.6-22.6,4.8-27.8-3.5,6.5,1.3,12.3,0,18.4-.6,32.3-2.3,67.4,3.5,100.7,5.5,10,.6,27.8-5.2,33.2,6.1-7.1,1-13.6-2.3-20-2.9h0v.3ZM2720,938.7c0,2.6-.6,5.2-1,7.7-2.6,17.7-6.1,32.3-14.2,48.7-11.6,24.2-25.5,52-48.7,68.4-12.6,9-15.5,5.8-28.4,7.4-16.5,2.3-27.1,3.5-44.9,3.5s-6.5,1.9-9.7,1.6c-8.7-1-38.7-19.4-47.1-25.8-7.4-5.8-22.9-19.7-28.4-26.8-5.2-6.1-7.7-34.8-6.5-43.6,1-6.1,6.8-11.6,8.4-17.4,11.9-46.1,15.2-50,42.9-86.8,5.8-7.7,9.4-19.7,14.2-27.1,5.8-8.4,23.2-17.4,27.1-22.9,2.6-3.9,1.6-7.7,4.2-11.6,6.1-8.7,26.8-26.1,35.8-33.9,6.8-5.8,17.4-13.2,22.3-18.4,8.1-8.7,13.6-16.5,22.3-25.5,1-1,2.3-2.3,3.2-3.2,6.8-6.8,20-24.2,29-24.8,15.2-1,18.4,7.4,19.4,21.6,5.2,71,9.7,137.8,0,209.1h0v-.3ZM3055.9,618.3c4.2-3.9,12.6-1.6,8.7,3.2-2.9,3.2-5.5,5.5-6.5,10h-7.4c-1.3-1.6,3.5-11.6,5.5-13.2h-.3ZM2892.3,511.8c8.1-8.1,7.4-6.8,14.5-16.5,4.2-5.8,31.6-33.9,37.4-38.1,3.9-2.6,9-5.5,13.6-5.8,7.4-.6,11,3.9,17.1,5.8,16.5,5.5,11.9,5.5,24.2,12.9,4.8,2.9,17.1,4.2,22.6,2.9,4.5-1,6.1-8.4,11.9-6.8,7.7,2.6,11.6,16.8,9.7,24.5-1.6,6.5-9.7,29.4-12.9,34.8-5.2,8.4-13.9,13.9-19.7,21-12.3,14.8-21.9,37.4-37.8,48.1-9.4,6.1-23.6,14.2-33.6,20-3.9,2.3-13.9,7.1-17.7,7.1-11.6-.6-31.9-6.8-41.6-13.9-5.5-3.9-13.6-13.9-13.9-20.7-.6-26.1,6.5-56.1,25.8-75.2h.3v-.3ZM2780,653.7v-7.7c19.4-1.9,37.8,0,56.5,2.6l-14.2-6.5-27.1-3.2c-3.9-1.9-13.2,7.4-15.5,3.2-6.1-12.6,18.1-24.8,23.9-34.8,13.2-4.5,7.1,9,11.6,14.5,3.2,3.9,22.3,22.3,26.5,25.2,6.5,4.5,16.5,4.2,19.7,12.6-11.3-3.5-22.3-2.3-33.9-3.5-8.4-1-13.9-.6-21.3-1.3-3.5,0-5.8-3.5-9.4-4.2-3.5-.3-15.8,3.9-16.5,3.2h-.3ZM2918.8,714.4c-11.3-1.9-17.7-9.4-29.7-3.2l-1-3.9c5.8,0,14.8-5.8,20.3-4.5,1.3,0,12.9,9.7,10.3,11.6h0ZM2991.1,699.6c-7.7,4.2-28.4-5.2-38.1-4.2-28.4,2.9-55.2-7.1-82.9-1-10.6-6.1-38.7,0-28.1-17.7-2.9-7.4-7.7-3.2-13.6-3.5-13.9-.6-28.1-1-41.6-3.9v5.8c9.7-4.2,12.6,4.5,20.3,6.5,10,2.6,20-1,29.4,1.9,3.5,4.8-9,5.5-11,5.5-5.5,0-13.9,0-19.4-1.3-7.4-1.3-24.2-9.4-23.6-17.4,0-11,8.4-4.5,14.8-3.9,15.8,1.3,32.6,1,48.4,1.9,9.7.6,21.9,0,31,1.6,7.7,1.3,15.8,7.7,23.6,9,0,3.9-3.9,1-5.8.6-2.6-.6-6.1-1-8.4-1.6-4.2-1.3-5.8-4.5-11.6-4.5s-2.6,3.5-4.2,3.9c-5.2,1-14.2-.3-20,1,2.9-13.2-11.6-1.6-2.3,4.8,6.5,4.2,55.8,2.6,67.1,2.9,26.5,2.6,51.3,7.4,77.8,8.7,0,1.9,0,3.9-2.3,4.8h.3ZM3053.3,693.8l-92.3-13.2c2.6-3.5,5.2-2.6,8.7-2.6,20-.3,43.9,1.6,63.9,5.2,1.9.3,26.1,5.5,19.7,10.6ZM3063,692.5c0-4.2,2.3-11.6-2.6-13.6-8.1-3.2-23.2-3.5-32.3-5.8-4.5-1.3-7.7-4.5-12.6-4.2,1.3-3.9,3.2-5.8,7.1-7.4-4.2-9.4,15.5-10,16.8-16.1,0-1.9-1.9-4.5,0-6.5,1.3-1.6,6.5-3.2,8.4-5.2l2.6.6c5.2,3.9,16.5,24.2,10,28.4l-15.8-2.6c-2.3,3.9-1.9,4.8-7.1,3.5l-.6-7.7-11,5.2c3.2-.6,3.5,3.9,5.2,4.2,8.1,2.3,22.6.3,31.6,2.3,3.9,2.6,3.5,20.3,12.6,21-1.9,4.8-7.4,3.5-11.6,3.2v.6h-.6ZM3193.1,716.3l10.3,2.3c1.6,11.6-11.9,3.5-19.7,4.8l9.4-7.1h0ZM3150.8,719.9v5.8c6.1.6,14.5-1,16.8,6.8-7.4,2.3-27.8-5.2-32.3-2.9-.6,0,0,2.9-1.9,3.2-3.2.6-7.1-.6-10.3-.6,0-11.3,5.2-4.5,10.3-5.8,1.9-.3,16.8-7.7,17.4-6.5h0Z"/>
</svg>